<svg width="30" height="27" viewBox="0 0 30 27" fill="none" xmlns="http://www.w3.org/2000/svg">
<g clip-path="url(#clip0)">
<path d="M22.4136 0H7.58643C7.18213 0 6.854 0.328125 6.854 0.732422V11.9897C6.854 12.1509 6.98584 12.2827 7.14697 12.2827H22.8516C23.0127 12.2827 23.1445 12.1509 23.1445 11.9897V0.732422C23.146 0.328125 22.8179 0 22.4136 0Z" fill="#C1AD89"/>
<path d="M0 20.7832C0 21.1875 0.328125 21.5156 0.732422 21.5156H29.2676C29.6719 21.5156 30 21.1875 30 20.7832V10.3008H0V20.7832Z" fill="#FEF6E9"/>
<path d="M29.2676 4.88672H0.732422C0.328125 4.88672 0 5.21484 0 5.61914V10.3008H30V5.61914C30 5.21484 29.6719 4.88672 29.2676 4.88672Z" fill="#F2E5CE"/>
<path d="M25.2524 8.63379C25.8673 8.63379 26.3657 8.13535 26.3657 7.52051C26.3657 6.90566 25.8673 6.40723 25.2524 6.40723C24.6376 6.40723 24.1392 6.90566 24.1392 7.52051C24.1392 8.13535 24.6376 8.63379 25.2524 8.63379Z" fill="#C1AD89"/>
<path d="M23.146 13.9248H6.854V25.4751C6.854 25.8794 7.18213 26.2075 7.58643 26.2075H22.4121C22.8164 26.2075 23.1445 25.8794 23.1445 25.4751V13.9248H23.146Z" fill="#F2E5CE"/>
<path d="M5.10498 13.9248H24.895" stroke="#C1AD89" stroke-miterlimit="10" stroke-linecap="round" stroke-linejoin="round"/>
<path d="M11.124 16.3418H18.876" stroke="#C1AD89" stroke-miterlimit="10" stroke-linecap="round" stroke-linejoin="round"/>
<path d="M11.124 18.7822H18.876" stroke="#C1AD89" stroke-miterlimit="10" stroke-linecap="round" stroke-linejoin="round"/>
<path d="M11.124 21.2241H18.876" stroke="#C1AD89" stroke-miterlimit="10" stroke-linecap="round" stroke-linejoin="round"/>
<path d="M11.124 23.6646H18.876" stroke="#C1AD89" stroke-miterlimit="10" stroke-linecap="round" stroke-linejoin="round"/>
</g>
<defs>
<clipPath id="clip0">
<rect width="30" height="26.2075" fill="white"/>
</clipPath>
</defs>
</svg>
