<svg width="30" height="30" viewBox="0 0 30 30" fill="none" xmlns="http://www.w3.org/2000/svg">
<g clip-path="url(#clip0)">
<path d="M28.9052 4.9302L25.85 7.9854C25.5588 8.27665 25.1343 8.32614 24.9039 8.09391L21.9039 5.09391C21.6736 4.86358 21.7212 4.43909 22.0124 4.14784L25.0696 1.09454C25.5264 0.637689 25.3399 -0.0437829 24.7631 0.00380596C21.8316 0.24175 18.5975 2.59454 17.5181 6.78426C17.501 6.85279 17.4915 6.92322 17.4934 6.98985C17.6838 13.1003 23.897 13.776 27.6812 9.99175C29.0727 8.60025 29.8589 6.88325 29.9959 5.25571C30.0454 4.66941 29.3697 4.46764 28.9052 4.9302Z" fill="#FEF6E9"/>
<path d="M20.4631 7.91687C20.2461 7.69987 19.814 7.77601 19.5018 8.09009L0.829815 26.7601C-0.215236 27.8052 -0.200008 28.8693 0.464333 29.5336C1.12867 30.198 2.19466 30.2132 3.23781 29.1681L21.9098 10.4962C22.2239 10.1821 22.3 9.7519 22.083 9.53489L20.4631 7.91687ZM2.15849 28.5552C1.22004 28.3477 1.22004 27.1332 2.15849 26.9257C2.22322 26.9105 2.29365 26.9105 2.35837 26.9257C3.29682 27.1332 3.29682 28.3477 2.35837 28.5552C2.29365 28.5704 2.22322 28.5704 2.15849 28.5552Z" fill="#FEF6E9"/>
<path d="M1.48642 0.963751L0.480957 1.96922L17.1283 18.6166L18.1338 17.6111L1.48642 0.963751Z" fill="#F2E5CE"/>
<path d="M4.86011 3.55774L3.07457 5.34137L0.481934 1.96827L1.48701 0.963196L4.86011 3.55774Z" fill="#F2E5CE"/>
<path d="M19.4163 18.1142C18.9233 17.6212 18.9233 16.8236 19.4163 16.3306L17.4576 14.3718L13.8884 17.941L15.8472 19.8997C16.3402 19.4067 17.1378 19.4067 17.6308 19.8997C18.1238 20.3928 18.1238 21.1923 17.6308 21.6834L25.0927 29.1453C26.1683 30.2208 27.8377 30.2931 28.8237 29.3071C29.8097 28.3211 29.7374 26.6516 28.6619 25.5761L21.2 18.1142C20.707 18.6072 19.9094 18.6072 19.4163 18.1142Z" fill="#C1AD89"/>
<path d="M19.6675 21.1542L26.6687 28.1555" stroke="#FEF6E9" stroke-miterlimit="10" stroke-linecap="round" stroke-linejoin="round"/>
<path d="M20.6726 20.1491L27.6739 27.1504" stroke="#FEF6E9" stroke-miterlimit="10" stroke-linecap="round" stroke-linejoin="round"/>
</g>
<defs>
<clipPath id="clip0">
<rect width="30" height="30" fill="white"/>
</clipPath>
</defs>
</svg>
