<svg width="30" height="35" viewBox="0 0 30 35" fill="none" xmlns="http://www.w3.org/2000/svg">
<g clip-path="url(#clip0)">
<path d="M19.6288 31.5089H2.04117C0.91465 31.5089 0 30.5943 0 29.4678V2.04117C0 0.91465 0.91465 0 2.04117 0H19.6314C20.7579 0 21.6726 0.91465 21.6726 2.04117V29.4703C21.67 30.5968 20.7579 31.5089 19.6288 31.5089Z" fill="#E4DAD4"/>
<path d="M3.99707 7.33787H10.8363" stroke="#B7A398" stroke-miterlimit="10" stroke-linecap="round" stroke-linejoin="round"/>
<path d="M3.99707 11.6424H17.6729" stroke="#B7A398" stroke-miterlimit="10" stroke-linecap="round" stroke-linejoin="round"/>
<path d="M3.99707 15.9495H17.6729" stroke="#B7A398" stroke-miterlimit="10" stroke-linecap="round" stroke-linejoin="round"/>
<path d="M3.99707 20.2567H17.6729" stroke="#B7A398" stroke-miterlimit="10" stroke-linecap="round" stroke-linejoin="round"/>
<path d="M3.99707 24.5612H17.6729" stroke="#B7A398" stroke-miterlimit="10" stroke-linecap="round" stroke-linejoin="round"/>
<path d="M29.2353 29.2817C29.4962 28.3981 29.4756 28.4653 29.7365 27.5816L28.5144 26.791C28.4963 26.1425 28.4912 25.9151 28.4731 25.2666L29.6513 24.4113C29.3438 23.5432 29.3671 23.6104 29.0596 22.7422L27.6075 22.8223C27.2122 22.3082 27.0753 22.1273 26.6799 21.6131L27.1295 20.2308C26.3699 19.7089 26.4267 19.7502 25.6671 19.2283L24.538 20.1456C23.9153 19.9621 23.6983 19.8975 23.0756 19.7141L22.626 18.3292C21.7062 18.355 21.776 18.3524 20.8536 18.3757L20.4789 19.7812C19.8666 19.9983 19.6547 20.0732 19.0424 20.2902L17.8667 19.4324C17.1355 19.9931 17.1924 19.9518 16.4612 20.5125L16.9857 21.8689C16.6188 22.4038 16.4896 22.5898 16.1227 23.1246L14.6681 23.122C14.4071 24.0057 14.4278 23.9385 14.1668 24.8222L15.3889 25.6128C15.407 26.2613 15.4122 26.4887 15.4303 27.1372L14.2521 27.9924C14.5595 28.8606 14.5363 28.796 14.8438 29.6641L16.2984 29.584C16.6937 30.0982 16.8307 30.2791 17.226 30.7932L16.7738 32.1781C17.5334 32.7 17.4766 32.6587 18.2362 33.1806L19.3653 32.2634C19.988 32.4468 20.205 32.5114 20.8277 32.6949L21.2773 34.0798C22.1971 34.0539 22.1274 34.0565 23.0498 34.0333L23.4244 32.6277C24.0368 32.4107 24.2486 32.3357 24.861 32.1187L26.0366 32.9765C26.7678 32.4158 26.7109 32.4572 27.4422 31.8965L26.9176 30.54C27.2845 30.0052 27.4137 29.8191 27.7806 29.2843L29.2353 29.2817ZM20.8148 30.0569C18.6884 29.429 17.4714 27.194 18.1019 25.065C18.7297 22.9386 20.9647 21.7217 23.0937 22.3521C25.2201 22.9799 26.4371 25.2149 25.8066 27.3439C25.1762 29.4703 22.9412 30.6873 20.8148 30.0569Z" fill="#B7A398"/>
<path d="M21.2773 34.3433C21.1636 34.3433 21.0654 34.2709 21.0292 34.1624L20.6236 32.9093L19.4247 32.5553L18.4016 33.3873C18.3137 33.4596 18.1845 33.4648 18.0915 33.4002L16.6291 32.3977C16.5335 32.3331 16.4922 32.2117 16.5283 32.1032L16.9366 30.8501L16.1744 29.8579L14.8592 29.9302C14.743 29.9457 14.6396 29.8656 14.6009 29.7571L14.0092 28.0854C13.9704 27.9769 14.0066 27.8555 14.1022 27.7883L15.1693 27.0132L15.1357 25.7626L14.0298 25.0469C13.9342 24.9849 13.8877 24.8661 13.9213 24.755L14.4226 23.0549C14.4562 22.9438 14.5569 22.8688 14.6732 22.8688H15.9909L16.6989 21.8379L16.2235 20.608C16.1821 20.4995 16.2157 20.3781 16.3087 20.3083L17.7143 19.2283C17.8047 19.1586 17.9313 19.156 18.0243 19.2232L19.0914 19.9983L20.2696 19.5797L20.6081 18.3059C20.6365 18.1948 20.7373 18.1147 20.8535 18.1121L22.626 18.0656C22.75 18.0605 22.8456 18.1354 22.8792 18.2465L23.2849 19.4996L24.4837 19.8536L25.5043 19.0216C25.5947 18.9493 25.7213 18.9441 25.8169 19.0087L27.2794 20.0112C27.3749 20.0758 27.4163 20.1972 27.3801 20.3057L26.9719 21.5589L27.7315 22.551L29.0466 22.4787C29.1732 22.4761 29.2688 22.5433 29.305 22.6518L29.8993 24.3209C29.938 24.4294 29.9019 24.5509 29.8063 24.618L28.7392 25.3932L28.7728 26.6437L29.8786 27.3594C29.9768 27.4214 30.0207 27.5403 29.9871 27.6514L29.4833 29.3515C29.4497 29.4626 29.3489 29.5375 29.2327 29.5375H27.915L27.207 30.5684L27.6824 31.7983C27.7238 31.9068 27.6902 32.0282 27.5972 32.098L26.1916 33.178C26.1012 33.2478 25.9746 33.2504 25.8815 33.1832L24.8144 32.4081L23.6363 32.8266L23.2978 34.1004C23.2694 34.2115 23.1686 34.2916 23.0523 34.2942L21.2799 34.3407C21.2825 34.3433 21.2799 34.3433 21.2773 34.3433ZM19.3679 32.005C19.3911 32.005 19.417 32.0076 19.4428 32.0153L20.9052 32.4468C20.9879 32.4701 21.0525 32.5347 21.0783 32.6173L21.4659 33.8162L22.8482 33.78L23.1738 32.5605C23.197 32.4778 23.2564 32.4106 23.3391 32.3822L24.7757 31.8732C24.8558 31.8448 24.9462 31.8577 25.016 31.9094L26.0366 32.6509L27.1321 31.8086L26.6773 30.633C26.6463 30.5529 26.6567 30.4625 26.7058 30.3927L27.5687 29.137C27.6178 29.0673 27.6979 29.0233 27.7832 29.0233H29.0441L29.4368 27.6979L28.3774 27.0132C28.3051 26.9667 28.2612 26.8866 28.2586 26.8013L28.2173 25.2769C28.2147 25.1916 28.256 25.1089 28.3232 25.0599L29.3438 24.3209L28.8813 23.0187L27.623 23.0885C27.5377 23.0988 27.455 23.0549 27.4034 22.9877L26.4758 21.7785C26.4241 21.7113 26.4086 21.6209 26.4345 21.5382L26.8246 20.3393L25.6852 19.5565L24.7085 20.3523C24.6413 20.4065 24.5535 20.422 24.4708 20.3988L23.0084 19.9673C22.9257 19.944 22.8611 19.8794 22.8353 19.7967L22.4477 18.5979L21.0654 18.6341L20.7424 19.8536C20.7192 19.9363 20.6598 20.0034 20.5797 20.0319L19.1431 20.5409C19.063 20.5693 18.9726 20.5564 18.9028 20.5047L17.8822 19.7632L16.7867 20.6055L17.2415 21.7811C17.2725 21.8612 17.2621 21.9516 17.213 22.0214L16.3501 23.2771C16.301 23.3468 16.2209 23.3907 16.1356 23.3907H14.8747L14.482 24.7162L15.5388 25.4009C15.6111 25.4474 15.655 25.5275 15.6576 25.6128L15.699 27.1372C15.7015 27.2225 15.6602 27.3051 15.593 27.3542L14.5724 28.0932L15.0349 29.398L16.2932 29.3282C16.3862 29.3256 16.4612 29.3618 16.5128 29.429L17.4404 30.6382C17.4921 30.7054 17.5076 30.7958 17.4817 30.8785L17.0916 32.0773L18.231 32.8602L19.2103 32.0644C19.249 32.0257 19.3085 32.005 19.3679 32.005ZM21.9516 30.4832C21.5512 30.4832 21.1455 30.4263 20.7399 30.3075C19.6443 29.9845 18.74 29.2533 18.1949 28.2482C17.6497 27.2431 17.5257 26.0882 17.8512 24.9927C18.1742 23.8972 18.9054 22.9929 19.9105 22.4477C20.913 21.9025 22.0705 21.7811 23.166 22.104C25.4268 22.7732 26.7238 25.158 26.0546 27.4188C25.5069 29.2765 23.7964 30.4832 21.9516 30.4832ZM20.8897 29.8088C22.8715 30.3979 24.9695 29.2585 25.5586 27.2716C26.1451 25.2846 25.0082 23.1918 23.0213 22.6053C22.0602 22.3211 21.0422 22.4296 20.1611 22.9076C19.28 23.3856 18.6367 24.1814 18.3525 25.1425C18.0683 26.1037 18.1742 27.1217 18.6548 28.0028C19.1328 28.8812 19.926 29.522 20.8897 29.8088Z" fill="#B7A398"/>
</g>
<defs>
<clipPath id="clip0">
<rect width="30" height="34.3433" fill="white"/>
</clipPath>
</defs>
</svg>
