<svg width="30" height="24" viewBox="0 0 30 24" fill="none" xmlns="http://www.w3.org/2000/svg">
<g clip-path="url(#clip0)">
<path d="M29.2676 2.60742H15.4951C15.1963 2.60742 14.9268 2.42578 14.8154 2.14746L14.1401 0.459961C14.0288 0.181641 13.7593 0 13.4604 0H0.732422C0.328125 0 0 0.328125 0 0.732422V2.60742V7.18945V22.3535C0 22.7578 0.328125 23.0859 0.732422 23.0859H11.2632C12.4761 23.0859 13.4604 22.1016 13.4604 20.8887V15.9375C13.4604 13.5103 15.4277 11.543 17.855 11.543H30V7.18945V3.33984C30 2.93555 29.6719 2.60742 29.2676 2.60742Z" fill="#FCF7F4"/>
<path d="M13.4604 15.9375V20.8887C13.4604 22.1016 12.4761 23.0859 11.2632 23.0859H13.4604H16.1133H29.2676C29.6719 23.0859 30 22.7578 30 22.3535V11.543H17.855C15.4277 11.543 13.4604 13.5103 13.4604 15.9375Z" fill="#B7A398"/>
</g>
<defs>
<clipPath id="clip0">
<rect width="30" height="23.0859" fill="white"/>
</clipPath>
</defs>
</svg>
