<svg width="30" height="30" viewBox="0 0 30 30" fill="none" xmlns="http://www.w3.org/2000/svg">
<g clip-path="url(#clip0)">
<path d="M8.77717 17.5544C13.6247 17.5544 17.5543 13.6247 17.5543 8.77718C17.5543 3.92968 13.6247 0 8.77717 0C3.92967 0 0 3.92968 0 8.77718C0 13.6247 3.92967 17.5544 8.77717 17.5544Z" fill="#E4DBB8"/>
<path d="M8.14024 9.51087H5.65723V8.48336H8.14024V5.8407H9.21701V8.48166H11.7V9.51087H9.21701V12.1518H8.14024V9.51087Z" fill="#654914"/>
<path d="M21.2227 29.9134C26.0702 29.9134 29.9999 25.9837 29.9999 21.1362C29.9999 16.2887 26.0702 12.359 21.2227 12.359C16.3752 12.359 12.4456 16.2887 12.4456 21.1362C12.4456 25.9837 16.3752 29.9134 21.2227 29.9134Z" fill="#F1F0E6"/>
<path d="M17.9756 20.8186H24.5296V21.6865H17.9756V20.8186Z" fill="#654914"/>
</g>
<defs>
<clipPath id="clip0">
<rect width="30" height="29.9117" fill="white"/>
</clipPath>
</defs>
</svg>
