<svg width="30" height="30" viewBox="0 0 30 30" fill="none" xmlns="http://www.w3.org/2000/svg">
<g clip-path="url(#clip0)">
<path d="M8.77717 17.5544C13.6247 17.5544 17.5543 13.6247 17.5543 8.77718C17.5543 3.92968 13.6247 0 8.77717 0C3.92967 0 0 3.92968 0 8.77718C0 13.6247 3.92967 17.5544 8.77717 17.5544Z" fill="#E4DBB8"/>
<path d="M21.2227 29.9134C26.0702 29.9134 29.9999 25.9837 29.9999 21.1362C29.9999 16.2887 26.0702 12.359 21.2227 12.359C16.3752 12.359 12.4456 16.2887 12.4456 21.1362C12.4456 25.9837 16.3752 29.9134 21.2227 29.9134Z" fill="#F1F0E6"/>
<path d="M9.307 8.51226C9.47684 8.32884 9.6229 8.15221 9.74518 7.98237C9.86746 7.81253 9.95918 7.64269 10.0203 7.47286C10.0815 7.30302 10.112 7.12299 10.112 6.93278C10.112 6.79691 10.0866 6.66274 10.0356 6.53026C9.98465 6.39779 9.90653 6.27721 9.80123 6.16851C9.69593 6.05981 9.56855 5.9732 9.41909 5.90866C9.26964 5.84412 9.0964 5.81185 8.89939 5.81185C8.62765 5.81185 8.39328 5.87469 8.19627 6.00037C7.99926 6.12605 7.8481 6.30778 7.7428 6.54555C7.6375 6.78332 7.58485 7.05846 7.58485 7.37096H6.3926C6.3926 6.86144 6.48941 6.40798 6.68302 6.01056C6.87663 5.61314 7.16196 5.30064 7.539 5.07306C7.91604 4.84548 8.3763 4.73169 8.91977 4.73169C9.33418 4.73169 9.69423 4.79793 9.99994 4.9304C10.3056 5.06287 10.5587 5.23441 10.7591 5.445C10.9595 5.6556 11.109 5.88658 11.2075 6.13794C11.306 6.3893 11.3552 6.63386 11.3552 6.87163C11.3552 7.24528 11.2652 7.60533 11.0852 7.9518C10.9052 8.29827 10.6691 8.60737 10.377 8.87911L8.34912 10.8662H11.4469V11.9871H6.00537L9.307 8.51226Z" fill="#654914"/>
<path d="M17.9756 20.8186H24.5296V21.6865H17.9756V20.8186Z" fill="#654914"/>
</g>
<defs>
<clipPath id="clip0">
<rect width="30" height="29.9117" fill="white"/>
</clipPath>
</defs>
</svg>
