<svg width="30" height="32" viewBox="0 0 30 32" fill="none" xmlns="http://www.w3.org/2000/svg">
<g clip-path="url(#clip0)">
<path d="M5.35234 31.5H1.65701C0.740187 31.5 0 30.9029 0 30.1683V13.9384C0 13.2016 0.742991 12.6068 1.65701 12.6068H5.35234C6.26916 12.6068 7.00935 13.2039 7.00935 13.9384V30.1661C7.00935 30.9029 6.26636 31.5 5.35234 31.5Z" fill="#B7A398"/>
<path d="M16.8476 31.5H13.1523C12.2355 31.5 11.4953 30.9029 11.4953 30.1683V1.33165C11.4953 0.597103 12.2383 0 13.1523 0H16.8476C17.7617 0 18.5046 0.597103 18.5046 1.33165V30.1661C18.5046 30.9029 17.7617 31.5 16.8476 31.5Z" fill="#E4DAD4"/>
<path d="M28.343 31.5H24.6477C23.7308 31.5 22.9907 30.9029 22.9907 30.1684V7.63616C22.9907 6.89936 23.7337 6.30451 24.6477 6.30451H28.343C29.2598 6.30451 30 6.90161 30 7.63616V30.1684C30 30.9029 29.257 31.5 28.343 31.5Z" fill="#FCF7F4"/>
</g>
<defs>
<clipPath id="clip0">
<rect width="30" height="31.5" fill="white"/>
</clipPath>
</defs>
</svg>
