<svg width="30" height="33" viewBox="0 0 30 33" fill="none" xmlns="http://www.w3.org/2000/svg">
<g clip-path="url(#clip0)">
<path d="M18.3798 29.504H1.91129C0.856452 29.504 0 28.6476 0 27.5927V1.91129C0 0.856451 0.856452 0 1.91129 0H18.3823C19.4371 0 20.2935 0.856451 20.2935 1.91129V27.5952C20.2911 28.65 19.4371 29.504 18.3798 29.504Z" fill="#B7A398"/>
<path d="M3.74274 6.87097H10.1468" stroke="#FCF7F4" stroke-miterlimit="10" stroke-linecap="round" stroke-linejoin="round"/>
<path d="M3.74274 10.9016H16.5484" stroke="#FCF7F4" stroke-miterlimit="10" stroke-linecap="round" stroke-linejoin="round"/>
<path d="M3.74274 14.9347H16.5484" stroke="#FCF7F4" stroke-miterlimit="10" stroke-linecap="round" stroke-linejoin="round"/>
<path d="M3.74274 18.9677H16.5484" stroke="#FCF7F4" stroke-miterlimit="10" stroke-linecap="round" stroke-linejoin="round"/>
<path d="M3.74274 22.9984H16.5484" stroke="#FCF7F4" stroke-miterlimit="10" stroke-linecap="round" stroke-linejoin="round"/>
<path d="M29.3178 16.6718L27.4114 18.5782C27.2299 18.7597 26.9662 18.7911 26.821 18.646L24.9509 16.7758C24.8057 16.6306 24.8372 16.3669 25.0186 16.1855L26.9251 14.279C27.2106 13.9936 27.0944 13.5677 26.7339 13.5992C24.9049 13.7468 22.8872 15.2153 22.2146 17.8282C22.2025 17.8718 22.1976 17.9153 22.2001 17.9565C22.3186 21.7694 26.1944 22.1903 28.5557 19.829C29.4243 18.9605 29.9154 17.8887 30.0001 16.875C30.0291 16.5073 29.6057 16.3815 29.3178 16.6718Z" fill="#FCF7F4"/>
<path d="M24.0508 18.5323C23.9153 18.3968 23.6468 18.4452 23.4508 18.6411L11.8041 30.2879C11.1532 30.9387 11.1605 31.604 11.5766 32.0178C11.9928 32.4339 12.6557 32.4411 13.3065 31.7903L24.9532 20.1436C25.1492 19.9476 25.1976 19.679 25.0621 19.5436L24.0508 18.5323ZM12.6315 31.4081C12.046 31.2799 12.046 30.5202 12.6315 30.3919C12.6726 30.3823 12.7162 30.3823 12.7573 30.3919C13.3428 30.5202 13.3428 31.2799 12.7573 31.4081C12.7162 31.4178 12.6726 31.4178 12.6315 31.4081Z" fill="#FCF7F4"/>
<path d="M12.2122 14.1951L11.5844 14.8229L21.9702 25.2088L22.598 24.5809L12.2122 14.1951Z" fill="#E4DAD4"/>
<path d="M14.3153 15.8129L13.2024 16.9258L11.5862 14.8234L12.2129 14.1968L14.3153 15.8129Z" fill="#E4DAD4"/>
<path d="M23.3976 24.8952C23.0903 24.5879 23.0903 24.0895 23.3976 23.7823L22.1758 22.5605L19.95 24.7863L21.1718 26.0081C21.479 25.7008 21.9774 25.7008 22.2847 26.0081C22.5919 26.3153 22.5919 26.8137 22.2847 27.121L26.9395 31.7758C27.6097 32.446 28.6524 32.4919 29.267 31.8774C29.8815 31.2629 29.8355 30.2202 29.1653 29.55L24.5105 24.8952C24.2032 25.2024 23.7049 25.2024 23.3976 24.8952Z" fill="#B7A398"/>
<path d="M23.5549 26.7919L27.9218 31.1589" stroke="#FCF7F4" stroke-width="0.5864" stroke-miterlimit="10" stroke-linecap="round" stroke-linejoin="round"/>
<path d="M24.1815 26.1653L28.5484 30.5323" stroke="#FCF7F4" stroke-width="0.5864" stroke-miterlimit="10" stroke-linecap="round" stroke-linejoin="round"/>
</g>
<defs>
<clipPath id="clip0">
<rect width="30" height="32.3105" fill="white"/>
</clipPath>
</defs>
</svg>
