<svg width="30" height="24" viewBox="0 0 30 24" fill="none" xmlns="http://www.w3.org/2000/svg">
<g clip-path="url(#clip0)">
<path d="M14.8154 2.17668L14.1401 0.466218C14.0288 0.184112 13.7593 0 13.4604 0H0.732422C0.328125 0 0 0.332589 0 0.742386V2.64289V22.6576C0 23.0674 0.328125 23.4 0.732422 23.4H29.2676C29.6719 23.4 30 23.0674 30 22.6576V3.38528C30 2.97548 29.6719 2.64289 29.2676 2.64289H15.4951C15.1963 2.64289 14.9268 2.45878 14.8154 2.17668Z" fill="#E9D9BC"/>
<path d="M29.2676 6.54488H0.732422C0.328125 6.54488 0 6.87746 0 7.28726V22.6576C0 23.0674 0.328125 23.4 0.732422 23.4H29.2676C29.6719 23.4 30 23.0674 30 22.6576V7.28726C30 6.87746 29.6719 6.54488 29.2676 6.54488Z" fill="#FEF6E9"/>
</g>
<defs>
<clipPath id="clip0">
<rect width="30" height="23.4" fill="white"/>
</clipPath>
</defs>
</svg>
