<svg width="209" height="29" viewBox="0 0 209 29" fill="none" xmlns="http://www.w3.org/2000/svg">
<path d="M4.78012 4.04001C2.03012 6.66001 0.0301199 10.39 0.000119931 14.57C-0.0698801 21.41 4.17012 27.71 13.3101 28.61V19.79L4.78012 14.7V4.46001V4.04001Z" fill="#FEF6E9"/>
<path d="M23.1801 4.06C25.9301 6.68 27.8301 10.39 27.8701 14.57C27.9301 21.41 23.7901 27.71 14.6301 28.61V19.79L23.1901 14.7V4.47L23.1801 4.06Z" fill="#FEF6E9"/>
<path d="M13.9702 0L6.21021 4.63V13.88L13.9702 18.51L21.7302 13.88V4.63L13.9702 0ZM13.9702 14.22C11.3402 14.22 9.2002 12 9.2002 9.26C9.2002 6.52 11.3402 4.3 13.9702 4.3C16.6102 4.3 18.7502 6.52 18.7502 9.26C18.7502 12 16.6102 14.22 13.9702 14.22Z" fill="#FEF6E9"/>
<path d="M32.8701 23.74H33.2201L35.6801 26.79H35.7001V23.74H35.9801V28.02H35.8301L33.1701 24.62H33.1501V27.92H32.8701V23.74Z" fill="#FEF6E9"/>
<path d="M38.4302 23.64L40.2002 27.91H39.5602L38.9902 26.52H37.3802L36.7902 27.91H36.4802L38.2902 23.64H38.4302ZM37.4802 26.25H38.8602L38.1802 24.6L37.4802 26.25Z" fill="#FEF6E9"/>
<path d="M43.6601 23.74V24.01H42.3001V27.92H41.6701V24.01H40.3101V23.74H43.6601Z" fill="#FEF6E9"/>
<path d="M44.2402 23.74H44.8702V27.92H44.2402V23.74Z" fill="#FEF6E9"/>
<path d="M47.7202 28.01C47.5302 28.01 47.3402 27.98 47.1602 27.93C46.9802 27.88 46.8202 27.8 46.6702 27.71C46.5202 27.61 46.3802 27.5 46.2502 27.36C46.1202 27.22 46.0202 27.07 45.9302 26.91C45.8402 26.75 45.7702 26.57 45.7302 26.38C45.6802 26.19 45.6602 26 45.6602 25.79C45.6602 25.59 45.6902 25.4 45.7302 25.22C45.7802 25.04 45.8502 24.86 45.9302 24.7C46.0202 24.54 46.1302 24.39 46.2502 24.26C46.3702 24.13 46.5102 24.02 46.6702 23.92C46.8202 23.83 46.9902 23.75 47.1602 23.7C47.3402 23.65 47.5202 23.62 47.7202 23.62C47.9102 23.62 48.1002 23.65 48.2802 23.7C48.4602 23.75 48.6202 23.82 48.7702 23.92C48.9202 24.01 49.0602 24.13 49.1902 24.26C49.3202 24.39 49.4202 24.54 49.5102 24.7C49.6002 24.86 49.6702 25.03 49.7102 25.22C49.7602 25.4 49.7802 25.6 49.7802 25.79C49.7802 25.99 49.7502 26.19 49.7102 26.38C49.6602 26.57 49.5902 26.75 49.5102 26.91C49.4202 27.07 49.3102 27.22 49.1902 27.36C49.0702 27.49 48.9302 27.61 48.7702 27.71C48.6202 27.81 48.4502 27.88 48.2802 27.93C48.1002 27.99 47.9102 28.01 47.7202 28.01ZM47.7202 27.81C47.9302 27.81 48.1202 27.76 48.2902 27.66C48.4602 27.56 48.5902 27.42 48.7102 27.24C48.8202 27.06 48.9102 26.85 48.9702 26.61C49.0302 26.36 49.0602 26.1 49.0602 25.81C49.0602 25.52 49.0302 25.26 48.9702 25.02C48.9102 24.78 48.8302 24.58 48.7102 24.4C48.6002 24.23 48.4602 24.09 48.2902 24C48.1302 23.9 47.9402 23.86 47.7202 23.86C47.5002 23.86 47.3102 23.91 47.1402 24C46.9702 24.1 46.8302 24.23 46.7202 24.4C46.6102 24.57 46.5202 24.78 46.4702 25.02C46.4102 25.26 46.3902 25.52 46.3902 25.81C46.3902 26.1 46.4202 26.37 46.4702 26.61C46.5302 26.86 46.6102 27.07 46.7202 27.24C46.8302 27.42 46.9702 27.56 47.1402 27.66C47.3102 27.76 47.5002 27.81 47.7202 27.81Z" fill="#FEF6E9"/>
<path d="M50.5701 23.74H50.9201L53.3801 26.79H53.4001V23.74H53.6801V28.02H53.5401L50.8801 24.62H50.8601V27.92H50.5801V23.74H50.5701Z" fill="#FEF6E9"/>
<path d="M56.1202 23.64L57.8902 27.91H57.2502L56.6802 26.52H55.0702L54.4802 27.91H54.1602L55.9702 23.64H56.1202ZM55.1802 26.25H56.5602L55.8802 24.6L55.1802 26.25Z" fill="#FEF6E9"/>
<path d="M58.3701 23.74H59.0001V27.65H60.8901V27.92H58.3701V23.74Z" fill="#FEF6E9"/>
<path d="M66.0102 23.74V24.01H64.6502V27.92H64.0202V24.01H62.6602V23.74H66.0102Z" fill="#FEF6E9"/>
<path d="M68.1001 23.64L69.8701 27.91H69.2301L68.6601 26.52H67.0501L66.4601 27.91H66.1401L67.9501 23.64H68.1001ZM67.1501 26.25H68.5301L67.8501 24.6L67.1501 26.25Z" fill="#FEF6E9"/>
<path d="M70.3501 23.74H70.9801V27.92H70.3501V23.74Z" fill="#FEF6E9"/>
<path d="M72.0802 23.74L73.2002 26.92L74.1902 24.05L75.2102 26.93L76.3002 23.74H76.6102L75.1702 27.95H74.9802L74.0602 25.35L73.1702 27.95H72.9602L71.4702 23.74H72.0802Z" fill="#FEF6E9"/>
<path d="M78.5801 23.64L80.3501 27.91H79.7101L79.1401 26.52H77.5301L76.9401 27.91H76.6301L78.4401 23.64H78.5801ZM77.6401 26.25H79.0201L78.3401 24.6L77.6401 26.25Z" fill="#FEF6E9"/>
<path d="M80.8301 23.74H81.1801L83.6401 26.79H83.6601V23.74H83.9401V28.02H83.8001L81.1401 24.62H81.1201V27.92H80.8401V23.74H80.8301Z" fill="#FEF6E9"/>
<path d="M86.4302 23.74H87.0602V26.45C87.0602 26.63 87.0902 26.8 87.1402 26.95C87.1902 27.11 87.2702 27.25 87.3802 27.36C87.4802 27.48 87.6102 27.57 87.7502 27.64C87.8902 27.71 88.0502 27.74 88.2302 27.74C88.4102 27.74 88.5702 27.71 88.7102 27.64C88.8502 27.57 88.9702 27.48 89.0802 27.36C89.1802 27.24 89.2602 27.1 89.3102 26.95C89.3602 26.79 89.3902 26.63 89.3902 26.45V23.74H89.6702V26.45C89.6702 26.66 89.6402 26.86 89.5802 27.05C89.5202 27.24 89.4202 27.4 89.2902 27.55C89.1602 27.69 88.9902 27.81 88.7802 27.89C88.5702 27.97 88.3202 28.01 88.0302 28.01C87.7702 28.01 87.5402 27.97 87.3402 27.89C87.1402 27.81 86.9702 27.69 86.8402 27.55C86.7002 27.41 86.6002 27.24 86.5302 27.05C86.4602 26.86 86.4302 26.65 86.4302 26.44V23.74Z" fill="#FEF6E9"/>
<path d="M90.55 23.74H90.9L93.36 26.79H93.38V23.74H93.66V28.02H93.51L90.85 24.62H90.83V27.92H90.55V23.74Z" fill="#FEF6E9"/>
<path d="M94.6001 23.74H95.2301V27.92H94.6001V23.74Z" fill="#FEF6E9"/>
<path d="M96.3802 23.74L97.7902 27.06L99.1102 23.74H99.4102L97.7102 28.02H97.5502L95.7202 23.74H96.3802Z" fill="#FEF6E9"/>
<path d="M102.49 23.74V24.01H100.51V25.5H101.83V25.77H100.51V27.64H102.49V27.91H99.8801V23.73H102.49V23.74Z" fill="#FEF6E9"/>
<path d="M103.19 23.74H104.49C104.71 23.74 104.91 23.77 105.08 23.82C105.25 23.87 105.39 23.95 105.5 24.05C105.61 24.15 105.7 24.26 105.76 24.4C105.82 24.53 105.85 24.68 105.85 24.84C105.85 24.97 105.83 25.09 105.78 25.2C105.74 25.31 105.67 25.41 105.59 25.51C105.51 25.6 105.41 25.68 105.3 25.75C105.19 25.82 105.06 25.87 104.93 25.9L106.29 27.93H105.56L104.26 25.97H103.82V27.93H103.19V23.74ZM103.82 25.74H104.18C104.32 25.74 104.45 25.72 104.57 25.68C104.69 25.64 104.79 25.58 104.88 25.5C104.97 25.42 105.04 25.33 105.09 25.22C105.14 25.11 105.16 24.99 105.16 24.85C105.16 24.73 105.14 24.61 105.1 24.51C105.06 24.41 105.01 24.32 104.94 24.24C104.87 24.16 104.79 24.11 104.69 24.06C104.59 24.02 104.49 24 104.37 24H103.82V25.74Z" fill="#FEF6E9"/>
<path d="M107.79 27.75C107.88 27.75 107.98 27.74 108.07 27.71C108.16 27.68 108.24 27.64 108.31 27.58C108.38 27.52 108.44 27.46 108.48 27.37C108.52 27.29 108.54 27.2 108.54 27.09C108.54 26.96 108.51 26.85 108.45 26.75C108.39 26.65 108.31 26.56 108.22 26.48C108.12 26.4 108.01 26.32 107.89 26.24C107.77 26.17 107.64 26.09 107.51 26.02C107.38 25.95 107.25 25.87 107.13 25.79C107.01 25.71 106.9 25.62 106.8 25.52C106.7 25.42 106.63 25.31 106.57 25.19C106.51 25.07 106.48 24.93 106.48 24.77C106.48 24.61 106.51 24.46 106.56 24.33C106.61 24.19 106.69 24.07 106.8 23.97C106.9 23.87 107.03 23.79 107.18 23.73C107.33 23.67 107.51 23.65 107.7 23.65C108.06 23.65 108.34 23.73 108.54 23.9C108.75 24.07 108.89 24.3 108.99 24.62L108.67 24.78C108.63 24.65 108.59 24.54 108.53 24.43C108.47 24.32 108.4 24.23 108.32 24.16C108.24 24.08 108.14 24.02 108.04 23.98C107.93 23.94 107.82 23.92 107.68 23.92C107.56 23.92 107.46 23.94 107.37 23.98C107.28 24.02 107.21 24.06 107.15 24.12C107.09 24.18 107.05 24.25 107.02 24.32C106.99 24.39 106.98 24.47 106.98 24.55C106.98 24.66 107.01 24.76 107.07 24.85C107.13 24.94 107.21 25.03 107.31 25.11C107.41 25.19 107.52 25.27 107.65 25.35C107.78 25.42 107.91 25.5 108.04 25.58C108.17 25.66 108.3 25.74 108.43 25.82C108.56 25.9 108.67 26 108.77 26.1C108.87 26.2 108.95 26.31 109.01 26.43C109.07 26.55 109.1 26.68 109.1 26.83C109.1 27 109.07 27.15 109.01 27.3C108.95 27.44 108.87 27.57 108.76 27.68C108.65 27.79 108.51 27.88 108.34 27.94C108.17 28 107.98 28.03 107.75 28.03C107.57 28.03 107.41 28.01 107.27 27.97C107.13 27.93 107 27.86 106.89 27.78C106.78 27.7 106.69 27.59 106.61 27.47C106.53 27.35 106.47 27.21 106.42 27.06L106.76 26.9C106.8 27.03 106.85 27.16 106.92 27.27C106.99 27.38 107.06 27.47 107.15 27.55C107.24 27.62 107.34 27.68 107.45 27.72C107.56 27.73 107.67 27.75 107.79 27.75Z" fill="#FEF6E9"/>
<path d="M109.8 23.74H110.43V27.92H109.8V23.74Z" fill="#FEF6E9"/>
<path d="M114.36 23.74V24.01H113V27.92H112.37V24.01H111.01V23.74H114.36Z" fill="#FEF6E9"/>
<path d="M115.12 23.74L116.42 25.86L117.72 23.74H118.06L116.61 26.11V27.92H115.98V26.18L114.48 23.74H115.12Z" fill="#FEF6E9"/>
<path d="M122.06 28.01C121.87 28.01 121.68 27.98 121.5 27.93C121.32 27.88 121.16 27.8 121.01 27.71C120.86 27.61 120.72 27.5 120.59 27.36C120.46 27.22 120.36 27.07 120.27 26.91C120.18 26.75 120.11 26.57 120.07 26.38C120.02 26.19 120 26 120 25.79C120 25.59 120.02 25.4 120.07 25.22C120.12 25.04 120.19 24.86 120.27 24.7C120.36 24.54 120.47 24.39 120.59 24.26C120.71 24.13 120.85 24.02 121.01 23.92C121.16 23.83 121.33 23.75 121.5 23.7C121.68 23.65 121.86 23.62 122.06 23.62C122.25 23.62 122.44 23.65 122.62 23.7C122.8 23.75 122.96 23.82 123.11 23.92C123.26 24.01 123.4 24.13 123.53 24.26C123.66 24.39 123.76 24.54 123.85 24.7C123.94 24.86 124.01 25.03 124.05 25.22C124.1 25.4 124.12 25.6 124.12 25.79C124.12 25.99 124.09 26.19 124.05 26.38C124 26.57 123.93 26.75 123.85 26.91C123.76 27.07 123.65 27.22 123.53 27.36C123.41 27.49 123.27 27.61 123.11 27.71C122.96 27.81 122.79 27.88 122.62 27.93C122.44 27.99 122.26 28.01 122.06 28.01ZM122.06 27.81C122.27 27.81 122.46 27.76 122.63 27.66C122.8 27.56 122.93 27.42 123.05 27.24C123.16 27.06 123.25 26.85 123.31 26.61C123.37 26.36 123.4 26.1 123.4 25.81C123.4 25.52 123.37 25.26 123.31 25.02C123.25 24.78 123.17 24.58 123.05 24.4C122.94 24.23 122.8 24.09 122.63 24C122.47 23.9 122.28 23.86 122.06 23.86C121.84 23.86 121.65 23.91 121.48 24C121.31 24.1 121.18 24.23 121.06 24.4C120.95 24.57 120.86 24.78 120.81 25.02C120.75 25.26 120.73 25.52 120.73 25.81C120.73 26.1 120.76 26.37 120.81 26.61C120.87 26.86 120.95 27.07 121.06 27.24C121.17 27.42 121.31 27.56 121.48 27.66C121.65 27.76 121.84 27.81 122.06 27.81Z" fill="#FEF6E9"/>
<path d="M127.37 23.74V24.01H125.54V25.5H126.86V25.77H125.54V27.91H124.91V23.73H127.37V23.74Z" fill="#FEF6E9"/>
<path d="M130.51 27.75C130.6 27.75 130.7 27.74 130.79 27.71C130.88 27.68 130.96 27.64 131.03 27.58C131.1 27.52 131.16 27.46 131.2 27.37C131.24 27.29 131.26 27.2 131.26 27.09C131.26 26.96 131.23 26.85 131.17 26.75C131.11 26.65 131.03 26.56 130.94 26.48C130.84 26.4 130.73 26.32 130.61 26.24C130.49 26.17 130.36 26.09 130.23 26.02C130.1 25.95 129.98 25.87 129.85 25.79C129.73 25.71 129.62 25.62 129.52 25.52C129.43 25.42 129.35 25.31 129.29 25.19C129.23 25.07 129.2 24.93 129.2 24.77C129.2 24.61 129.23 24.46 129.28 24.33C129.34 24.19 129.41 24.07 129.52 23.97C129.62 23.87 129.75 23.79 129.9 23.73C130.05 23.67 130.23 23.65 130.42 23.65C130.78 23.65 131.06 23.73 131.26 23.9C131.47 24.07 131.61 24.3 131.71 24.62L131.39 24.78C131.35 24.65 131.3 24.54 131.24 24.43C131.18 24.32 131.11 24.23 131.03 24.16C130.95 24.08 130.86 24.02 130.75 23.98C130.64 23.94 130.52 23.92 130.39 23.92C130.27 23.92 130.17 23.94 130.08 23.98C129.99 24.02 129.92 24.06 129.86 24.12C129.8 24.18 129.76 24.25 129.73 24.32C129.7 24.39 129.69 24.47 129.69 24.55C129.69 24.66 129.72 24.76 129.78 24.85C129.84 24.94 129.92 25.03 130.02 25.11C130.12 25.19 130.23 25.27 130.36 25.35C130.49 25.42 130.62 25.5 130.75 25.58C130.88 25.66 131.01 25.74 131.14 25.82C131.27 25.9 131.38 26 131.48 26.1C131.58 26.2 131.66 26.31 131.72 26.43C131.78 26.55 131.81 26.68 131.81 26.83C131.81 27 131.78 27.15 131.73 27.3C131.67 27.44 131.59 27.57 131.47 27.68C131.36 27.79 131.22 27.88 131.05 27.94C130.88 28 130.69 28.03 130.46 28.03C130.28 28.03 130.12 28.01 129.98 27.97C129.84 27.93 129.71 27.86 129.6 27.78C129.49 27.7 129.4 27.59 129.32 27.47C129.24 27.35 129.18 27.21 129.13 27.06L129.47 26.9C129.51 27.03 129.56 27.16 129.63 27.27C129.7 27.38 129.77 27.47 129.86 27.55C129.95 27.62 130.05 27.68 130.16 27.72C130.27 27.73 130.38 27.75 130.51 27.75Z" fill="#FEF6E9"/>
<path d="M133.09 25.84C133.09 26.13 133.13 26.4 133.21 26.63C133.29 26.86 133.4 27.06 133.54 27.22C133.68 27.38 133.84 27.5 134.03 27.59C134.22 27.68 134.42 27.72 134.65 27.72C134.78 27.72 134.91 27.69 135.03 27.63C135.15 27.57 135.27 27.5 135.37 27.41C135.48 27.32 135.57 27.22 135.65 27.1C135.73 26.98 135.8 26.87 135.85 26.75L136.11 26.94C136.03 27.08 135.94 27.22 135.84 27.35C135.73 27.48 135.61 27.59 135.48 27.69C135.34 27.79 135.18 27.87 135.01 27.93C134.84 27.99 134.64 28.02 134.43 28.02C134.22 28.02 134.03 27.99 133.85 27.94C133.67 27.89 133.5 27.81 133.34 27.72C133.19 27.62 133.05 27.51 132.93 27.38C132.81 27.24 132.7 27.1 132.62 26.94C132.54 26.78 132.47 26.61 132.43 26.42C132.38 26.24 132.36 26.05 132.36 25.85C132.36 25.66 132.38 25.46 132.43 25.28C132.48 25.09 132.54 24.92 132.63 24.76C132.71 24.6 132.82 24.45 132.94 24.31C133.06 24.18 133.2 24.06 133.36 23.96C133.51 23.86 133.68 23.79 133.87 23.73C134.06 23.68 134.25 23.65 134.46 23.65C134.66 23.65 134.84 23.68 135.01 23.74C135.18 23.8 135.33 23.88 135.47 23.98C135.61 24.08 135.73 24.19 135.84 24.32C135.95 24.45 136.04 24.58 136.12 24.72L135.85 24.93C135.69 24.59 135.52 24.34 135.32 24.18C135.13 24.02 134.9 23.94 134.65 23.94C134.43 23.94 134.23 23.98 134.04 24.07C133.85 24.16 133.69 24.28 133.55 24.45C133.41 24.61 133.3 24.81 133.22 25.05C133.13 25.28 133.09 25.55 133.09 25.84Z" fill="#FEF6E9"/>
<path d="M136.89 23.74H137.52V27.92H136.89V23.74Z" fill="#FEF6E9"/>
<path d="M141.07 23.74V24.01H139.09V25.5H140.41V25.77H139.09V27.64H141.07V27.91H138.46V23.73H141.07V23.74Z" fill="#FEF6E9"/>
<path d="M141.77 23.74H142.12L144.58 26.79H144.6V23.74H144.88V28.02H144.73L142.07 24.62H142.05V27.92H141.77V23.74Z" fill="#FEF6E9"/>
<path d="M146.4 25.84C146.4 26.13 146.44 26.4 146.52 26.63C146.6 26.86 146.71 27.06 146.84 27.22C146.98 27.38 147.14 27.5 147.33 27.59C147.52 27.68 147.72 27.72 147.94 27.72C148.07 27.72 148.2 27.69 148.32 27.63C148.44 27.57 148.55 27.5 148.66 27.41C148.76 27.32 148.86 27.22 148.94 27.1C149.02 26.98 149.09 26.87 149.14 26.75L149.4 26.94C149.32 27.08 149.23 27.22 149.13 27.35C149.02 27.48 148.9 27.59 148.76 27.69C148.62 27.79 148.47 27.87 148.29 27.93C148.12 27.99 147.92 28.02 147.71 28.02C147.5 28.02 147.31 27.99 147.13 27.94C146.95 27.89 146.78 27.81 146.63 27.72C146.48 27.62 146.34 27.51 146.22 27.38C146.1 27.24 146 27.1 145.91 26.94C145.83 26.78 145.76 26.61 145.72 26.42C145.67 26.24 145.65 26.05 145.65 25.85C145.65 25.66 145.67 25.46 145.72 25.28C145.77 25.09 145.83 24.92 145.92 24.76C146 24.6 146.11 24.45 146.23 24.31C146.35 24.18 146.49 24.06 146.65 23.96C146.81 23.86 146.98 23.79 147.16 23.73C147.34 23.68 147.54 23.65 147.75 23.65C147.95 23.65 148.13 23.68 148.3 23.74C148.47 23.8 148.62 23.88 148.76 23.98C148.9 24.08 149.02 24.19 149.13 24.32C149.24 24.45 149.33 24.58 149.41 24.72L149.14 24.93C148.98 24.59 148.81 24.34 148.61 24.18C148.42 24.02 148.19 23.94 147.94 23.94C147.72 23.94 147.52 23.98 147.33 24.07C147.14 24.16 146.98 24.28 146.84 24.45C146.7 24.61 146.59 24.81 146.51 25.05C146.44 25.28 146.4 25.55 146.4 25.84Z" fill="#FEF6E9"/>
<path d="M152.81 23.74V24.01H150.83V25.5H152.15V25.77H150.83V27.64H152.81V27.91H150.2V23.73H152.81V23.74Z" fill="#FEF6E9"/>
<path d="M156.63 23.64L158.39 27.91H157.75L157.18 26.52H155.57L154.98 27.91H154.66L156.47 23.64H156.63ZM155.68 26.25H157.06L156.38 24.6L155.68 26.25Z" fill="#FEF6E9"/>
<path d="M158.88 23.74H159.23L161.69 26.79H161.72V23.74H162V28.02H161.86L159.2 24.62H159.18V27.92H158.9V23.74H158.88Z" fill="#FEF6E9"/>
<path d="M162.93 23.74H164.18C164.57 23.74 164.9 23.78 165.17 23.86C165.45 23.94 165.68 24.07 165.86 24.24C166.07 24.44 166.23 24.67 166.34 24.93C166.45 25.19 166.5 25.48 166.5 25.79C166.5 26.08 166.45 26.36 166.36 26.62C166.26 26.88 166.12 27.1 165.94 27.29C165.76 27.48 165.53 27.64 165.26 27.75C164.99 27.86 164.68 27.92 164.33 27.92H162.93V23.74ZM163.56 27.61H164.23C164.44 27.61 164.64 27.57 164.83 27.49C165.02 27.41 165.18 27.3 165.32 27.14C165.46 26.99 165.57 26.8 165.65 26.57C165.73 26.34 165.77 26.09 165.77 25.79C165.77 25.53 165.73 25.3 165.66 25.08C165.59 24.87 165.48 24.68 165.34 24.53C165.2 24.37 165.04 24.25 164.86 24.17C164.67 24.08 164.47 24.04 164.24 24.04H163.57V27.61H163.56Z" fill="#FEF6E9"/>
<path d="M171.88 23.74V24.01H170.52V27.92H169.89V24.01H168.53V23.74H171.88Z" fill="#FEF6E9"/>
<path d="M175.07 23.74V24.01H173.09V25.5H174.41V25.77H173.09V27.64H175.07V27.91H172.46V23.73H175.07V23.74Z" fill="#FEF6E9"/>
<path d="M176.34 25.84C176.34 26.13 176.38 26.4 176.46 26.63C176.54 26.86 176.65 27.06 176.79 27.22C176.93 27.38 177.09 27.5 177.28 27.59C177.47 27.68 177.67 27.72 177.9 27.72C178.03 27.72 178.16 27.69 178.28 27.63C178.4 27.57 178.52 27.5 178.62 27.41C178.72 27.32 178.82 27.22 178.9 27.1C178.98 26.98 179.05 26.87 179.1 26.75L179.36 26.94C179.28 27.08 179.19 27.22 179.09 27.35C178.99 27.48 178.86 27.59 178.73 27.69C178.59 27.79 178.44 27.87 178.26 27.93C178.09 27.99 177.89 28.02 177.68 28.02C177.47 28.02 177.28 27.99 177.1 27.94C176.92 27.89 176.75 27.81 176.6 27.72C176.45 27.62 176.31 27.51 176.19 27.38C176.07 27.24 175.97 27.1 175.88 26.94C175.8 26.78 175.73 26.61 175.69 26.42C175.65 26.24 175.62 26.05 175.62 25.85C175.62 25.66 175.64 25.46 175.69 25.28C175.74 25.09 175.8 24.92 175.89 24.76C175.97 24.6 176.08 24.45 176.2 24.31C176.32 24.18 176.46 24.06 176.62 23.96C176.78 23.86 176.95 23.79 177.13 23.73C177.31 23.68 177.51 23.65 177.72 23.65C177.92 23.65 178.1 23.68 178.27 23.74C178.44 23.8 178.59 23.88 178.73 23.98C178.87 24.08 178.99 24.19 179.1 24.32C179.21 24.45 179.3 24.58 179.38 24.72L179.11 24.93C178.95 24.59 178.78 24.34 178.58 24.18C178.39 24.02 178.16 23.94 177.91 23.94C177.69 23.94 177.49 23.98 177.3 24.07C177.11 24.16 176.95 24.28 176.81 24.45C176.67 24.61 176.56 24.81 176.48 25.05C176.38 25.28 176.34 25.55 176.34 25.84Z" fill="#FEF6E9"/>
<path d="M180.77 25.91V27.91H180.14V23.73H180.77V25.63H182.65V23.73H183.28V27.91H182.65V25.91H180.77Z" fill="#FEF6E9"/>
<path d="M184.23 23.74H184.58L187.04 26.79H187.07V23.74H187.35V28.02H187.2L184.54 24.62H184.52V27.92H184.24V23.74H184.23Z" fill="#FEF6E9"/>
<path d="M190.19 28.01C190 28.01 189.81 27.98 189.63 27.93C189.45 27.88 189.29 27.8 189.14 27.71C188.99 27.61 188.85 27.5 188.72 27.36C188.59 27.22 188.49 27.07 188.4 26.91C188.31 26.75 188.24 26.57 188.19 26.38C188.14 26.19 188.12 26 188.12 25.79C188.12 25.59 188.14 25.4 188.19 25.22C188.24 25.04 188.31 24.86 188.4 24.7C188.49 24.54 188.59 24.39 188.72 24.26C188.85 24.13 188.98 24.02 189.14 23.92C189.29 23.83 189.46 23.75 189.63 23.7C189.81 23.65 189.99 23.62 190.19 23.62C190.38 23.62 190.57 23.65 190.75 23.7C190.93 23.75 191.09 23.82 191.25 23.92C191.4 24.01 191.54 24.13 191.67 24.26C191.8 24.39 191.9 24.54 191.99 24.7C192.08 24.86 192.15 25.03 192.19 25.22C192.24 25.4 192.26 25.6 192.26 25.79C192.26 25.99 192.24 26.19 192.19 26.38C192.14 26.57 192.07 26.75 191.99 26.91C191.9 27.07 191.8 27.22 191.67 27.36C191.54 27.49 191.41 27.61 191.25 27.71C191.1 27.81 190.93 27.88 190.75 27.93C190.57 27.99 190.38 28.01 190.19 28.01ZM190.19 27.81C190.4 27.81 190.59 27.76 190.76 27.66C190.92 27.56 191.06 27.42 191.18 27.24C191.29 27.06 191.38 26.85 191.44 26.61C191.5 26.36 191.53 26.1 191.53 25.81C191.53 25.52 191.5 25.26 191.44 25.02C191.38 24.78 191.3 24.58 191.18 24.4C191.07 24.23 190.93 24.09 190.76 24C190.59 23.9 190.4 23.86 190.19 23.86C189.97 23.86 189.78 23.91 189.61 24C189.45 24.1 189.31 24.23 189.19 24.4C189.08 24.57 189 24.78 188.94 25.02C188.88 25.26 188.85 25.52 188.85 25.81C188.85 26.1 188.88 26.37 188.94 26.61C189 26.86 189.08 27.07 189.19 27.24C189.3 27.42 189.44 27.56 189.61 27.66C189.78 27.76 189.97 27.81 190.19 27.81Z" fill="#FEF6E9"/>
<path d="M193.04 23.74H193.67V27.65H195.56V27.92H193.04V23.74Z" fill="#FEF6E9"/>
<path d="M197.98 28.01C197.79 28.01 197.6 27.98 197.42 27.93C197.24 27.88 197.08 27.8 196.93 27.71C196.78 27.61 196.64 27.5 196.51 27.36C196.38 27.22 196.28 27.07 196.19 26.91C196.1 26.75 196.03 26.57 195.99 26.38C195.94 26.19 195.92 26 195.92 25.79C195.92 25.59 195.94 25.4 195.99 25.22C196.04 25.04 196.11 24.86 196.19 24.7C196.28 24.54 196.38 24.39 196.51 24.26C196.64 24.13 196.78 24.02 196.93 23.92C197.08 23.83 197.25 23.75 197.42 23.7C197.6 23.65 197.78 23.62 197.98 23.62C198.17 23.62 198.36 23.65 198.54 23.7C198.72 23.75 198.88 23.82 199.04 23.92C199.19 24.01 199.33 24.13 199.46 24.26C199.59 24.39 199.69 24.54 199.78 24.7C199.87 24.86 199.94 25.03 199.98 25.22C200.03 25.4 200.05 25.6 200.05 25.79C200.05 25.99 200.03 26.19 199.98 26.38C199.93 26.57 199.86 26.75 199.78 26.91C199.69 27.07 199.59 27.22 199.46 27.36C199.33 27.49 199.2 27.61 199.04 27.71C198.89 27.81 198.72 27.88 198.54 27.93C198.36 27.99 198.18 28.01 197.98 28.01ZM197.98 27.81C198.19 27.81 198.38 27.76 198.55 27.66C198.72 27.56 198.85 27.42 198.97 27.24C199.08 27.06 199.17 26.85 199.23 26.61C199.29 26.36 199.32 26.1 199.32 25.81C199.32 25.52 199.29 25.26 199.23 25.02C199.17 24.78 199.09 24.58 198.97 24.4C198.86 24.23 198.72 24.09 198.55 24C198.38 23.9 198.2 23.86 197.98 23.86C197.76 23.86 197.57 23.91 197.4 24C197.23 24.1 197.1 24.23 196.98 24.4C196.87 24.57 196.78 24.78 196.73 25.02C196.67 25.26 196.64 25.52 196.64 25.81C196.64 26.1 196.67 26.37 196.73 26.61C196.79 26.86 196.87 27.07 196.98 27.24C197.09 27.42 197.23 27.56 197.4 27.66C197.57 27.76 197.77 27.81 197.98 27.81Z" fill="#FEF6E9"/>
<path d="M202.97 23.94C202.74 23.94 202.54 23.98 202.35 24.08C202.16 24.17 201.99 24.3 201.86 24.46C201.72 24.63 201.61 24.83 201.54 25.06C201.46 25.3 201.42 25.56 201.42 25.86C201.42 26.15 201.46 26.42 201.54 26.65C201.63 26.89 201.74 27.09 201.89 27.25C202.04 27.42 202.21 27.55 202.4 27.64C202.6 27.73 202.81 27.77 203.04 27.77C203.21 27.77 203.35 27.75 203.49 27.7C203.62 27.65 203.74 27.58 203.84 27.49V26.02H203.13V25.77H204.47V27.61C204.36 27.68 204.25 27.73 204.14 27.78C204.03 27.83 203.91 27.87 203.78 27.91C203.65 27.95 203.51 27.97 203.36 27.99C203.2 28.01 203.03 28.02 202.83 28.02C202.62 28.02 202.43 27.99 202.24 27.94C202.05 27.89 201.88 27.82 201.72 27.72C201.56 27.63 201.42 27.51 201.29 27.38C201.16 27.25 201.05 27.1 200.96 26.94C200.87 26.78 200.8 26.61 200.75 26.43C200.7 26.25 200.68 26.06 200.68 25.86C200.68 25.66 200.7 25.47 200.75 25.29C200.8 25.1 200.86 24.93 200.95 24.76C201.04 24.6 201.14 24.44 201.27 24.31C201.39 24.17 201.53 24.05 201.69 23.96C201.85 23.86 202.02 23.78 202.2 23.73C202.38 23.68 202.58 23.65 202.79 23.65C202.99 23.65 203.17 23.68 203.34 23.74C203.51 23.8 203.66 23.88 203.8 23.98C203.94 24.08 204.06 24.19 204.17 24.32C204.28 24.45 204.37 24.58 204.45 24.72L204.18 24.93C204.02 24.59 203.85 24.34 203.65 24.18C203.44 24.02 203.22 23.94 202.97 23.94Z" fill="#FEF6E9"/>
<path d="M205.52 23.74L206.82 25.86L208.12 23.74H208.46L207 26.11V27.92H206.37V26.18L204.87 23.74H205.52Z" fill="#FEF6E9"/>
<path d="M37.24 19.17H43.02V6.58998H48.42V4.47998H31.75V6.58998H37.24V19.17Z" fill="#FEF6E9"/>
<path d="M158.98 4.47998H142.31V6.58998H147.8V19.17H153.58V6.58998H158.98V4.47998Z" fill="#FEF6E9"/>
<path d="M173.86 17.07H166.04V12.89H172.23V10.78H166.04V6.59998H173.86V4.47998H160.26V19.18H173.86V17.07Z" fill="#FEF6E9"/>
<path d="M51.1599 19.15L52.7599 14.54H57.1299L58.7099 19.15H64.9299L59.0499 4.47998H52.9799L46.6299 19.14H51.1599V19.15ZM56.4099 12.43H53.4899L54.9599 8.18998L56.4099 12.43Z" fill="#FEF6E9"/>
<path d="M101.36 19.15L102.96 14.54H107.33L108.91 19.15H115.13L109.25 4.48999H103.18L96.8301 19.15H101.36ZM106.6 12.43H103.68L105.15 8.18999L106.6 12.43Z" fill="#FEF6E9"/>
<path d="M72.4299 4.47998H66.6599V19.16H72.4299V4.47998Z" fill="#FEF6E9"/>
<path d="M94.9 4.47998L92.19 13.75L89.63 4.47998H85.08L82.34 13.75L79.92 4.47998H74.5L78.72 19.11H84.1L86.37 11.43L88.52 19.11H94.01L98.93 4.47998H94.9Z" fill="#FEF6E9"/>
<path d="M128.84 13.42L123.41 4.47998H117.11V19.15H120.62V9.70998L126.2 19.16H129.19C130.91 19.16 132.31 17.76 132.31 16.04V4.47998H128.84V13.42Z" fill="#FEF6E9"/>
<path d="M198.34 12.4H202.52V19.16H205.17C206.89 19.16 208.29 17.76 208.29 16.04V4.47998H202.52V10.29H198.34V4.47998H192.57V19.16H198.34V12.4Z" fill="#FEF6E9"/>
<path d="M190.7 16.4C190.7 16.4 184.39 17.78 182.69 16.61C182.69 16.61 180.81 15.79 180.81 11.99C180.81 9.04999 181.69 7.74999 182.64 7.10999C183.81 6.44999 185.59 6.06999 190.7 7.13999V4.85999C190.7 4.85999 180.59 2.57999 176.67 7.24999C172.74 11.92 175.82 16.14 176.06 16.43C176.3 16.72 179.56 21.2 190.7 18.42V16.4Z" fill="#FEF6E9"/>
</svg>
