<svg width="24" height="24" viewBox="0 0 24 24" fill="none" xmlns="http://www.w3.org/2000/svg">
<g clip-path="url(#clip0)">
<path d="M2.17472 2.20169C-0.726858 5.13908 -0.726858 9.89938 2.17472 12.8368C5.07629 15.7742 9.77853 15.7742 12.6801 12.8368C15.5817 9.89938 15.5817 5.13908 12.6801 2.20169C9.77853 -0.735706 5.07629 -0.734202 2.17472 2.20169ZM11.6297 11.7734C9.30905 14.1227 5.54577 14.1227 3.22511 11.7734C0.904441 9.4241 0.904441 5.61436 3.22511 3.26505C5.54577 0.915732 9.30905 0.915732 11.6297 3.26505C13.9504 5.61436 13.9519 9.4241 11.6297 11.7734Z" fill="#717652"/>
<path d="M23.7386 23.7353C23.3909 24.0872 22.8263 24.0872 22.4772 23.7353L11.5618 12.6851L12.8231 11.4082L23.7386 22.4584C24.0862 22.8118 24.0862 23.3833 23.7386 23.7353Z" fill="#717652"/>
</g>
<defs>
<clipPath id="clip0">
<rect width="24" height="24" fill="white"/>
</clipPath>
</defs>
</svg>
