<svg width="3800" height="2400" viewBox="0 0 3800 2400" fill="none" xmlns="http://www.w3.org/2000/svg">
<rect width="3800" height="2400" fill="white"/>
<path d="M456.578 374.344L522.837 290.747L526.331 293.166L460.072 376.763L456.578 374.344ZM491.884 374.344L558.143 290.747L561.637 293.166L495.378 376.763L491.884 374.344ZM664.464 294.376L663.926 297.198C659.805 297.198 657.117 297.736 655.862 298.811L667.017 355.125L696.048 299.618C695.421 298.005 692.777 297.198 688.118 297.198L688.656 294.376H710.697L710.16 297.198C705.142 297.198 702.185 298.139 701.289 300.021L662.985 373H656.534L647.529 326.094L623.069 373H616.617L602.774 300.021C602.326 298.139 599.593 297.198 594.576 297.198L595.113 294.376H624.547L624.009 297.198C619.798 297.198 617.11 297.736 615.945 298.811L627.101 354.99L646.185 318.568L642.691 300.021C642.333 298.139 639.6 297.198 634.493 297.198L635.03 294.376H664.464ZM702.612 373L703.15 370.178C708.078 370.178 711.035 369.282 712.02 367.49L723.31 299.886C722.772 298.094 720.084 297.198 715.246 297.198L715.784 294.376H769.947L767.796 307.413H764.974C765.243 305.531 765.377 304.008 765.377 302.843C765.377 300.782 764.795 299.483 763.63 298.946H735.809L730.702 329.858H749.518C751.4 329.141 752.744 326.318 753.55 321.39H756.372L752.744 342.894H749.921C750.28 340.386 750.459 338.862 750.459 338.325C750.459 336.264 749.876 334.965 748.712 334.427H729.896L724.251 368.43H754.894C757.224 367.534 759.688 364.712 762.286 359.963H764.974L759.598 373H702.612ZM770.862 373L771.4 370.178C776.328 370.178 779.285 369.282 780.27 367.49L791.56 299.886C791.022 298.094 788.334 297.198 783.496 297.198L784.034 294.376H813.333L812.795 297.198C807.867 297.198 804.91 298.094 803.925 299.886L792.501 368.43H823.144C825.474 367.534 827.938 364.712 830.536 359.963H833.224L827.848 373H770.862ZM889.454 297.602C880.404 297.602 872.564 301.902 865.934 310.504C859.303 319.106 855.988 329.589 855.988 341.954C855.988 350.824 858.049 357.678 862.17 362.517C866.382 367.355 871.623 369.774 877.895 369.774C882.375 369.774 887.034 368.251 891.873 365.205C896.801 362.069 900.206 358.754 902.087 355.259L905.044 356.872C898.234 368.52 888.02 374.344 874.401 374.344C863.918 374.344 855.854 371.298 850.209 365.205C844.564 359.112 841.742 351.451 841.742 342.222C841.742 334.875 843.22 328.021 846.177 321.659C849.134 315.298 852.942 310.101 857.601 306.069C862.26 301.947 867.412 298.766 873.057 296.526C878.791 294.197 884.481 293.032 890.126 293.032C892.724 293.032 895.636 293.704 898.862 295.048C902.087 296.392 903.924 297.064 904.372 297.064C905.447 297.064 906.119 296.168 906.388 294.376H909.479L908.001 311.445H905.044C905.044 307.413 903.79 304.098 901.281 301.499C898.772 298.901 894.83 297.602 889.454 297.602ZM930.522 342.222C930.522 350.018 932.09 356.558 935.226 361.845C938.362 367.131 943.111 369.774 949.473 369.774C955.476 369.774 960.807 367.445 965.466 362.786C970.215 358.126 973.709 352.482 975.949 345.851C978.189 339.221 979.309 332.456 979.309 325.557C979.309 320.539 978.682 316.014 977.428 311.982C976.263 307.95 974.202 304.546 971.245 301.768C968.378 298.99 964.794 297.602 960.493 297.602C954.49 297.602 949.114 299.976 944.365 304.725C939.706 309.384 936.212 315.074 933.882 321.794C931.642 328.424 930.522 335.234 930.522 342.222ZM961.837 293.032C971.335 293.032 978.861 296.168 984.417 302.44C990.061 308.622 992.884 316.462 992.884 325.96C992.884 339.131 988.404 350.51 979.444 360.098C970.484 369.595 960.045 374.344 948.129 374.344C938.541 374.344 930.97 371.253 925.415 365.07C919.86 358.888 917.082 351.048 917.082 341.55C917.082 328.29 921.517 316.91 930.388 307.413C939.348 297.826 949.831 293.032 961.837 293.032ZM996.612 373L997.15 370.178C1002.08 370.178 1005.03 369.282 1006.02 367.49L1017.31 299.886C1016.77 298.094 1014.08 297.198 1009.25 297.198L1009.78 294.376H1029.41L1047.55 356.872L1086.66 294.376H1106.55L1106.01 297.198C1101.09 297.198 1098.13 298.094 1097.14 299.886L1085.85 367.49C1086.39 369.282 1089.08 370.178 1093.92 370.178L1093.38 373H1064.08L1064.62 370.178C1069.55 370.178 1072.5 369.282 1073.49 367.49L1083.57 307.144L1042.44 373H1040.43L1020.8 306.338L1010.59 367.49C1011.13 369.282 1013.82 370.178 1018.65 370.178L1018.12 373H996.612ZM1105.42 373L1105.96 370.178C1110.88 370.178 1113.84 369.282 1114.83 367.49L1126.12 299.886C1125.58 298.094 1122.89 297.198 1118.05 297.198L1118.59 294.376H1172.75L1170.6 307.413H1167.78C1168.05 305.531 1168.18 304.008 1168.18 302.843C1168.18 300.782 1167.6 299.483 1166.44 298.946H1138.62L1133.51 329.858H1152.32C1154.21 329.141 1155.55 326.318 1156.36 321.39H1159.18L1155.55 342.894H1152.73C1153.09 340.386 1153.27 338.862 1153.27 338.325C1153.27 336.264 1152.68 334.965 1151.52 334.427H1132.7L1127.06 368.43H1157.7C1160.03 367.534 1162.49 364.712 1165.09 359.963H1167.78L1162.4 373H1105.42ZM1202.86 374.344L1269.12 290.747L1272.62 293.166L1206.36 376.763L1202.86 374.344ZM1238.17 374.344L1304.43 290.747L1307.92 293.166L1241.67 376.763L1238.17 374.344Z" fill="#8C7C66"/>
<line x1="2100.2" y1="340.9" x2="1456.2" y2="340.9" stroke="#8C7C66" stroke-width="4.2"/>
<circle cx="2238.8" cy="340.2" r="7" fill="#8C7C66"/>
<path d="M1867.75 554.67L1442.99 719.074C1412.02 731.06 1412.02 774.815 1442.99 786.811L1884.95 957.868C1893.41 961.141 1902.79 961.141 1911.25 957.868L2353.21 786.811C2384.18 774.825 2384.18 731.07 2353.21 719.074L1928.45 554.67C1908.93 547.11 1887.28 547.11 1867.75 554.67Z" fill="#8B7B66"/>
<path d="M1867.75 554.67L1442.99 719.074C1412.02 731.06 1412.02 774.815 1442.99 786.811L1884.95 957.868C1893.41 961.141 1902.79 961.141 1911.25 957.868L2353.21 786.811C2384.18 774.825 2384.18 731.07 2353.21 719.074L1928.45 554.67C1908.93 547.11 1887.28 547.11 1867.75 554.67Z" fill="url(#paint0_linear)"/>
<path d="M1614.88 879.861L1572.37 807.984L1529.87 879.861V685.64L1614.88 652.54V879.861Z" fill="#F0E3CD"/>
<path d="M1614.88 879.861L1572.37 807.984L1529.87 879.861V685.64L1614.88 652.54V879.861Z" fill="url(#paint1_linear)"/>
<path d="M3800 1969H0V2400H3800V1969Z" fill="#8B7B66"/>
<path d="M3800 1969H0V2400H3800V1969Z" fill="url(#paint2_linear)"/>
<path d="M2138.12 996.743H1672.09V836.006C1885.08 720.266 2138.12 836.006 2138.12 836.006V996.743Z" fill="#8B7B66"/>
<path d="M2138.12 996.743H1672.09V836.006C1885.08 720.266 2138.12 836.006 2138.12 836.006V996.743Z" fill="url(#paint3_linear)"/>
<path d="M2482.66 1846.39L1978.65 1757.67C1963.43 1754.99 1953.27 1740.5 1955.95 1725.3L2096.78 927.952C2099.46 912.753 2113.98 902.61 2129.2 905.291L2633.21 994.013C2648.44 996.694 2658.59 1011.18 2655.91 1026.38L2515.09 1823.73C2512.4 1838.93 2497.89 1849.07 2482.66 1846.39Z" fill="#BEAB88"/>
<path d="M2482.66 1846.39L1978.65 1757.67C1963.43 1754.99 1953.27 1740.5 1955.95 1725.3L2096.78 927.952C2099.46 912.753 2113.98 902.61 2129.2 905.291L2633.21 994.013C2648.44 996.694 2658.59 1011.18 2655.91 1026.38L2515.09 1823.73C2512.4 1838.93 2497.89 1849.07 2482.66 1846.39Z" fill="url(#paint4_linear)"/>
<path opacity="0.7" d="M2472.84 1788.49L2603.91 1046.19L2155.03 967.191L2023.96 1709.49L2472.84 1788.49Z" fill="#A18965"/>
<path d="M2464.94 1786.52L2596.01 1044.22L2147.13 965.224L2016.06 1707.53L2464.94 1786.52Z" fill="#FEF5E8"/>
<path opacity="0.59" d="M2015.95 1707.49L2147.05 965.182L2595.93 1044.2L2464.82 1786.51L2015.95 1707.49Z" fill="url(#paint5_linear)"/>
<path d="M2305.66 1103.96L2200.79 1085.5L2174.78 1232.81L2279.65 1251.27L2305.66 1103.96Z" fill="#303518"/>
<path d="M2319.67 1215.76L2485.48 1244.94" stroke="#8B7B66" stroke-width="5.6" stroke-miterlimit="10"/>
<path d="M2316.01 1236.45L2481.82 1265.63" stroke="#8B7B66" stroke-width="5.6" stroke-miterlimit="10"/>
<path d="M2312.36 1257.13L2478.17 1286.32" stroke="#8B7B66" stroke-width="5.6" stroke-miterlimit="10"/>
<path d="M2325.31 1195.41L2408.22 1210.01" stroke="#8B7B66" stroke-width="5.6" stroke-miterlimit="10"/>
<path d="M2162.17 1304.2L2465.58 1357.61" stroke="#8B7B66" stroke-width="5.6" stroke-miterlimit="10"/>
<path d="M2157.14 1332.67L2460.56 1386.08" stroke="#8B7B66" stroke-width="5.6" stroke-miterlimit="10"/>
<path d="M2152.12 1361.14L2455.52 1414.55" stroke="#8B7B66" stroke-width="5.6" stroke-miterlimit="10"/>
<path d="M2147.08 1389.61L2450.5 1443.02" stroke="#8B7B66" stroke-width="5.6" stroke-miterlimit="10"/>
<path d="M2142.06 1418.08L2445.47 1471.49" stroke="#8B7B66" stroke-width="5.6" stroke-miterlimit="10"/>
<path d="M2137.03 1446.54L2440.45 1499.96" stroke="#8B7B66" stroke-width="5.6" stroke-miterlimit="10"/>
<path d="M2132 1475.02L2435.41 1528.44" stroke="#8B7B66" stroke-width="5.6" stroke-miterlimit="10"/>
<path d="M2126.97 1503.49L2430.38 1556.9" stroke="#8B7B66" stroke-width="5.6" stroke-miterlimit="10"/>
<path d="M2121.94 1531.97L2425.36 1585.37" stroke="#8B7B66" stroke-width="5.6" stroke-miterlimit="10"/>
<path d="M2116.91 1560.43L2420.32 1613.85" stroke="#E60012" stroke-width="2.8" stroke-miterlimit="10"/>
<path d="M2111.88 1588.9L2415.3 1642.31" stroke="#E60012" stroke-width="2.8" stroke-miterlimit="10"/>
<path d="M2106.86 1617.37L2410.27 1670.78" stroke="#E60012" stroke-width="2.8" stroke-miterlimit="10"/>
<path d="M2114.02 1672.68L2417.43 1726.1" stroke="#E60012" stroke-width="2.8" stroke-miterlimit="10"/>
<path d="M2188.82 1969.61H1613.56C1596.18 1969.61 1582.1 1955.55 1582.1 1938.21V1028.15C1582.1 1010.8 1596.19 996.744 1613.56 996.744H2188.82C2206.19 996.744 2220.27 1010.81 2220.27 1028.15V1938.21C2220.27 1955.56 2206.18 1969.61 2188.82 1969.61Z" fill="#BEAB88"/>
<path d="M2188.82 1969.61H1613.56C1596.18 1969.61 1582.1 1955.55 1582.1 1938.21V1028.15C1582.1 1010.8 1596.19 996.744 1613.56 996.744H2188.82C2206.19 996.744 2220.27 1010.81 2220.27 1028.15V1938.21C2220.27 1955.56 2206.18 1969.61 2188.82 1969.61Z" fill="url(#paint6_linear)"/>
<path opacity="0.7" d="M2165.25 1906.81V1059.56H1652.91V1906.81H2165.25Z" fill="#A18965"/>
<path d="M2157.35 1906.81V1059.55H1645.01V1906.81H2157.35Z" fill="#FEF5E8"/>
<path opacity="0.59" d="M1645.02 1906.8V1059.55H2157.35V1906.8H1645.02Z" fill="url(#paint7_linear)"/>
<path d="M1847.73 1182.38H1728.03V1350.52H1847.73V1182.38Z" fill="#606540"/>
<path d="M1885.08 1303.29H2074.34" stroke="#8B7B66" stroke-width="5.6" stroke-miterlimit="10"/>
<path d="M1885.08 1326.9H2074.34" stroke="#8B7B66" stroke-width="5.6" stroke-miterlimit="10"/>
<path d="M1885.08 1350.52H2074.34" stroke="#8B7B66" stroke-width="5.6" stroke-miterlimit="10"/>
<path d="M1887.36 1279.68H1981.98" stroke="#8B7B66" stroke-width="5.6" stroke-miterlimit="10"/>
<path d="M1887.36 1431.88H2074.34" stroke="#8B7B66" stroke-width="5.6" stroke-miterlimit="10"/>
<path d="M1728.03 1464.38H2074.34" stroke="#8B7B66" stroke-width="5.6" stroke-miterlimit="10"/>
<path d="M1728.03 1496.88H2074.34" stroke="#8B7B66" stroke-width="5.6" stroke-miterlimit="10"/>
<path d="M1728.03 1529.37H2074.34" stroke="#8B7B66" stroke-width="5.6" stroke-miterlimit="10"/>
<path d="M1728.03 1561.86H2074.34" stroke="#8B7B66" stroke-width="5.6" stroke-miterlimit="10"/>
<path d="M1728.03 1594.36H2074.34" stroke="#8B7B66" stroke-width="5.6" stroke-miterlimit="10"/>
<path d="M1728.03 1626.86H2074.34" stroke="#8B7B66" stroke-width="5.6" stroke-miterlimit="10"/>
<path d="M1728.03 1659.35H2074.34" stroke="#8B7B66" stroke-width="5.6" stroke-miterlimit="10"/>
<path d="M1728.03 1691.85H2074.34" stroke="#8B7B66" stroke-width="5.6" stroke-miterlimit="10"/>
<path d="M1728.03 1724.34H2074.34" stroke="#8B7B66" stroke-width="5.6" stroke-miterlimit="10"/>
<path d="M1728.03 1756.83H2074.34" stroke="#8B7B66" stroke-width="5.6" stroke-miterlimit="10"/>
<path d="M1728.03 1789.33H2074.34" stroke="#8B7B66" stroke-width="5.6" stroke-miterlimit="10"/>
<path d="M1746.77 1849.16H2093.08" stroke="#8B7B66" stroke-width="5.6" stroke-miterlimit="10"/>
<path d="M1361.79 1795.24L1467.33 1721.48L993.915 1046.49L975.739 1095.32L940.56 1119.92L888.38 1120.26L1361.79 1795.24Z" fill="#8B7B66"/>
<path d="M1361.79 1795.24L1467.33 1721.48L993.915 1046.49L975.739 1095.32L940.56 1119.92L888.38 1120.26L1361.79 1795.24Z" fill="url(#paint8_linear)"/>
<path d="M975.739 1095.32L993.916 1046.49L820.295 906.385C818.113 904.621 814.973 906.809 815.891 909.461L888.381 1120.26L940.561 1119.91L975.739 1095.32Z" fill="#FEF5E8"/>
<path d="M975.739 1095.32L993.916 1046.49L820.295 906.385C818.113 904.621 814.973 906.809 815.891 909.461L888.381 1120.26L940.561 1119.91L975.739 1095.32Z" fill="url(#paint9_linear)"/>
<path d="M862.631 940.549L820.304 906.385C818.122 904.621 814.983 906.809 815.901 909.461L833.574 960.855C833.564 960.865 856.47 964.048 862.631 940.549Z" fill="#BEAB88"/>
<path d="M862.631 940.549L820.304 906.385C818.122 904.621 814.983 906.809 815.901 909.461L833.574 960.855C833.564 960.865 856.47 964.048 862.631 940.549Z" fill="url(#paint10_linear)"/>
<path d="M1432.15 1746.06L975.739 1095.32L940.56 1119.92L1396.97 1770.65L1432.15 1746.06Z" fill="#BEAB88"/>
<path d="M1432.15 1746.06L975.739 1095.32L940.56 1119.92L1396.97 1770.65L1432.15 1746.06Z" fill="url(#paint11_linear)"/>
<path d="M1825.52 1940.3C1804.65 1926.04 1783.66 1925.87 1782.78 1925.87H1041.37C1036.04 1925.87 1031.73 1930.18 1031.73 1935.49C1031.73 1940.8 1036.04 1945.11 1041.37 1945.11H1782.72C1782.89 1945.11 1799.38 1945.41 1815.37 1956.69C1836.84 1971.83 1847.72 1999.01 1847.72 2037.47C1847.72 2128.09 1785.37 2129.8 1782.77 2129.83H1041.37C1036.04 2129.83 1031.73 2134.14 1031.73 2139.45C1031.73 2144.76 1036.04 2149.07 1041.37 2149.07H1782.78C1783.66 2149.07 1804.65 2148.9 1825.52 2134.64C1859.82 2111.2 1867.02 2068.85 1867.02 2037.46C1867.02 2006.08 1859.82 1963.74 1825.52 1940.3Z" fill="#BEAB88"/>
<path d="M1825.52 1940.3C1804.65 1926.04 1783.66 1925.87 1782.78 1925.87H1041.37C1036.04 1925.87 1031.73 1930.18 1031.73 1935.49C1031.73 1940.8 1036.04 1945.11 1041.37 1945.11H1782.72C1782.89 1945.11 1799.38 1945.41 1815.37 1956.69C1836.84 1971.83 1847.72 1999.01 1847.72 2037.47C1847.72 2128.09 1785.37 2129.8 1782.77 2129.83H1041.37C1036.04 2129.83 1031.73 2134.14 1031.73 2139.45C1031.73 2144.76 1036.04 2149.07 1041.37 2149.07H1782.78C1783.66 2149.07 1804.65 2148.9 1825.52 2134.64C1859.82 2111.2 1867.02 2068.85 1867.02 2037.46C1867.02 2006.08 1859.82 1963.74 1825.52 1940.3Z" fill="url(#paint12_linear)"/>
<path d="M1782.78 2129.84C1785.38 2129.81 1847.73 2128.1 1847.73 2037.48C1847.73 1999.02 1836.84 1971.84 1815.38 1956.7C1799.39 1945.42 1782.89 1945.12 1782.73 1945.12H1041.37C1041.37 1945.12 1105.27 2027.43 1041.37 2129.84H1782.78Z" fill="#FEF5E8"/>
<path d="M1782.78 2129.84C1785.38 2129.81 1847.73 2128.1 1847.73 2037.48C1847.73 1999.02 1836.84 1971.84 1815.38 1956.7C1799.39 1945.42 1782.89 1945.12 1782.73 1945.12H1041.37C1041.37 1945.12 1105.27 2027.43 1041.37 2129.84H1782.78Z" fill="url(#paint13_linear)"/>
<path d="M1060.21 1981.85H1844" stroke="#8B7B66" stroke-width="5.6" stroke-miterlimit="10"/>
<path d="M1068.76 2018.58H1851.98" stroke="#8B7B66" stroke-width="5.6" stroke-miterlimit="10"/>
<path d="M1068.65 2055.32H1850.73" stroke="#8B7B66" stroke-width="5.6" stroke-miterlimit="10"/>
<path d="M1059.88 2092.06H1841.49" stroke="#8B7B66" stroke-width="5.6" stroke-miterlimit="10"/>
<path d="M1225.68 1799.73C1225.68 1799.73 1188.51 1597.92 1046.89 1420.87C973.33 1328.9 904.592 1313.76 873.985 1332.9C843.378 1352.03 848.107 1410.11 953.603 1492.85C1109.31 1614.98 1178.15 1775.98 1190.49 1868.13C1202.84 1960.27 1225.68 1799.73 1225.68 1799.73Z" fill="#606540"/>
<path d="M1166.78 1855.78C1166.78 1855.78 1135.62 1764.76 971.01 1632.83C811.211 1504.75 670.784 1519.24 670.942 1560.3C671.06 1589.44 704.935 1603.73 828.568 1643.49C951.382 1682.97 1095.06 1803.54 1166.77 1908.03L1203.94 1884.94L1166.78 1855.78Z" fill="#6F7451"/>
<path d="M1122.69 1925.87C1122.69 1925.87 1099.41 1881.01 1074.19 1856.64C1037.91 1821.6 1014.21 1857.15 1004.38 1845.4C994.557 1833.63 1000.98 1812.12 974.465 1806.23C947.946 1800.35 926.847 1830.36 917.023 1819.58C907.199 1808.8 911.81 1785.26 888.38 1785.26C864.951 1785.26 858.079 1799.38 820.749 1795.26C783.418 1791.14 735.286 1780.9 709.744 1799.75C684.201 1818.59 800.123 1805.85 814.854 1847.04C829.585 1888.23 829.585 1897.26 848.255 1896.67C866.916 1896.08 884.105 1865.49 900.811 1885.11C917.506 1904.72 925.839 1936.67 957.276 1925.89C988.712 1915.1 1012.99 1881.16 1068.65 1925.89H1122.69V1925.87Z" fill="#303518"/>
<path d="M1203.76 1799.73C1203.76 1799.73 1126.44 1525.87 926.55 1392.41" stroke="#FEF5E8" stroke-width="5.6" stroke-miterlimit="10"/>
<path d="M1166.78 1880.5C1166.78 1880.5 1024.75 1644.99 753.432 1568.43" stroke="#FEF5E8" stroke-width="5.6" stroke-miterlimit="10"/>
<path d="M821.321 1819.5C821.321 1819.5 853.715 1803.9 888.657 1835.57C930.707 1873.68 942.002 1871.63 966.369 1870.8C990.736 1869.96 1046.36 1850.44 1095.1 1925.86" stroke="#FEF5E8" stroke-width="5.6" stroke-miterlimit="10"/>
<path d="M1188.51 1855.77C1188.51 1855.77 1071.12 1525 632.584 1350.5" stroke="#303518" stroke-width="5.6" stroke-miterlimit="10"/>
<path d="M727.821 1393.14C727.821 1393.14 654.256 1374.33 614.121 1420.87C614.121 1420.87 692.673 1445.28 727.821 1393.14Z" fill="#303518"/>
<path d="M753.521 1406.43C753.521 1406.43 705.972 1367.73 713.011 1302.11C713.011 1302.11 764.698 1337.33 753.521 1406.43Z" fill="#303518"/>
<path d="M829.328 1450.62C829.328 1450.62 774.482 1429.33 727.821 1471.33C727.821 1471.33 792.165 1503.69 829.328 1450.62Z" fill="#303518"/>
<path d="M857.586 1469.23C857.586 1469.23 822.368 1448.96 822.368 1392.4C822.368 1392.41 857.497 1415.06 857.586 1469.23Z" fill="#303518"/>
<path d="M632.584 1350.5C632.584 1350.5 587.354 1374.24 542.135 1333.1C542.125 1333.1 595.934 1302.11 632.584 1350.5Z" fill="#303518"/>
<path d="M1126.86 1856.64C1126.86 1856.64 947.304 1701.49 719.498 1707.64" stroke="#303518" stroke-width="5.6" stroke-miterlimit="10"/>
<path d="M835.845 1717.92C835.845 1717.92 791 1706.7 784.612 1659.53C784.622 1659.52 829.615 1667.94 835.845 1717.92Z" fill="#303518"/>
<path d="M888.805 1731.09C888.805 1731.09 849.075 1717.84 821.311 1747.96C821.321 1747.96 866.58 1760.58 888.805 1731.09Z" fill="#303518"/>
<path d="M719.498 1707.63C719.498 1707.63 684.715 1688.72 649.922 1717.91C649.922 1717.92 684.705 1744.37 719.498 1707.63Z" fill="#303518"/>
<path d="M601.572 1860.29C612.641 1860.29 621.615 1851.33 621.615 1840.28C621.615 1829.23 612.641 1820.27 601.572 1820.27C590.503 1820.27 581.529 1829.23 581.529 1840.28C581.529 1851.33 590.503 1860.29 601.572 1860.29Z" fill="#6F7451"/>
<path d="M581.53 1602.54C590.969 1602.54 598.62 1594.9 598.62 1585.48C598.62 1576.06 590.969 1568.42 581.53 1568.42C572.091 1568.42 564.439 1576.06 564.439 1585.48C564.439 1594.9 572.091 1602.54 581.53 1602.54Z" fill="#606540"/>
<path d="M778.669 1176.88C789.035 1176.88 797.438 1168.49 797.438 1158.14C797.438 1147.79 789.035 1139.4 778.669 1139.4C768.303 1139.4 759.9 1147.79 759.9 1158.14C759.9 1168.49 768.303 1176.88 778.669 1176.88Z" fill="#6F7451"/>
<path d="M1148.9 904.059C1167.19 904.059 1182.02 889.254 1182.02 870.989C1182.02 852.725 1167.19 837.919 1148.9 837.919C1130.6 837.919 1115.77 852.725 1115.77 870.989C1115.77 889.254 1130.6 904.059 1148.9 904.059Z" fill="#606540"/>
<path d="M3010.34 1325.97C3027.8 1325.97 3041.95 1311.84 3041.95 1294.41C3041.95 1276.98 3027.8 1262.85 3010.34 1262.85C2992.88 1262.85 2978.73 1276.98 2978.73 1294.41C2978.73 1311.84 2992.88 1325.97 3010.34 1325.97Z" fill="#6F7451"/>
<path d="M3152.5 1585.49C3170.48 1585.49 3185.06 1570.94 3185.06 1552.99C3185.06 1535.04 3170.48 1520.49 3152.5 1520.49C3134.53 1520.49 3119.95 1535.04 3119.95 1552.99C3119.95 1570.94 3134.53 1585.49 3152.5 1585.49Z" fill="#606540"/>
<path d="M3041.95 1791.5C3053.94 1791.5 3063.65 1781.8 3063.65 1769.83C3063.65 1757.87 3053.94 1748.17 3041.95 1748.17C3029.97 1748.17 3020.25 1757.87 3020.25 1769.83C3020.25 1781.8 3029.97 1791.5 3041.95 1791.5Z" fill="#6F7451"/>
<path d="M2558.39 831.119C2570.38 831.119 2580.09 821.419 2580.09 809.453C2580.09 797.488 2570.38 787.788 2558.39 787.788C2546.41 787.788 2536.69 797.488 2536.69 809.453C2536.69 821.419 2546.41 831.119 2558.39 831.119Z" fill="#606540"/>
<path d="M2878.84 961.446C2895.7 961.446 2909.38 956.777 2909.38 951.017C2909.38 945.257 2895.7 940.588 2878.84 940.588C2861.97 940.588 2848.3 945.257 2848.3 951.017C2848.3 956.777 2861.97 961.446 2878.84 961.446Z" fill="#8B7B66"/>
<path d="M2878.84 961.446C2895.7 961.446 2909.38 956.777 2909.38 951.017C2909.38 945.257 2895.7 940.588 2878.84 940.588C2861.97 940.588 2848.3 945.257 2848.3 951.017C2848.3 956.777 2861.97 961.446 2878.84 961.446Z" fill="url(#paint14_linear)"/>
<path d="M2878.84 951.017C2905.89 951.017 2927.83 943.431 2927.83 934.073C2927.83 924.715 2905.89 917.129 2878.84 917.129C2851.78 917.129 2829.85 924.715 2829.85 934.073C2829.85 943.431 2851.78 951.017 2878.84 951.017Z" fill="#8B7B66"/>
<path d="M2878.84 951.017C2905.89 951.017 2927.83 943.431 2927.83 934.073C2927.83 924.715 2905.89 917.129 2878.84 917.129C2851.78 917.129 2829.85 924.715 2829.85 934.073C2829.85 943.431 2851.78 951.017 2878.84 951.017Z" fill="url(#paint15_linear)"/>
<path d="M2878.84 934.074C2905.89 934.074 2927.83 926.488 2927.83 917.13C2927.83 907.772 2905.89 900.186 2878.84 900.186C2851.78 900.186 2829.85 907.772 2829.85 917.13C2829.85 926.488 2851.78 934.074 2878.84 934.074Z" fill="#8B7B66"/>
<path d="M2878.84 934.074C2905.89 934.074 2927.83 926.488 2927.83 917.13C2927.83 907.772 2905.89 900.186 2878.84 900.186C2851.78 900.186 2829.85 907.772 2829.85 917.13C2829.85 926.488 2851.78 934.074 2878.84 934.074Z" fill="url(#paint16_linear)"/>
<path d="M2878.84 917.13C2905.89 917.13 2927.83 909.544 2927.83 900.186C2927.83 890.828 2905.89 883.242 2878.84 883.242C2851.78 883.242 2829.85 890.828 2829.85 900.186C2829.85 909.544 2851.78 917.13 2878.84 917.13Z" fill="#8B7B66"/>
<path d="M2878.84 917.13C2905.89 917.13 2927.83 909.544 2927.83 900.186C2927.83 890.828 2905.89 883.242 2878.84 883.242C2851.78 883.242 2829.85 890.828 2829.85 900.186C2829.85 909.544 2851.78 917.13 2878.84 917.13Z" fill="url(#paint17_linear)"/>
<path d="M2994.2 717.319C2994.2 653.712 2942.55 602.151 2878.84 602.151C2815.13 602.151 2763.48 653.712 2763.48 717.319C2763.48 746.88 2774.64 773.829 2792.97 794.223C2792.97 794.223 2829.84 849.353 2829.84 883.241C2829.84 892.595 2851.78 900.185 2878.83 900.185C2905.88 900.185 2927.82 892.595 2927.82 883.241C2927.82 849.353 2964.69 794.223 2964.69 794.223C2983.03 773.829 2994.2 746.88 2994.2 717.319Z" fill="#FEF5E8"/>
<path d="M2994.2 717.319C2994.2 653.712 2942.55 602.151 2878.84 602.151C2815.13 602.151 2763.48 653.712 2763.48 717.319C2763.48 746.88 2774.64 773.829 2792.97 794.223C2792.97 794.223 2829.84 849.353 2829.84 883.241C2829.84 892.595 2851.78 900.185 2878.83 900.185C2905.88 900.185 2927.82 892.595 2927.82 883.241C2927.82 849.353 2964.69 794.223 2964.69 794.223C2983.03 773.829 2994.2 746.88 2994.2 717.319Z" fill="url(#paint18_linear)"/>
<path d="M2864.85 899.485C2864.85 899.485 2865.5 803.41 2856.65 785.105C2847.8 766.801 2832.02 777.407 2837.25 789.442C2842.49 801.468 2900.16 789.028 2886.56 775.209C2874.1 762.543 2861.06 795.051 2887.16 796.618C2913.27 798.185 2934.77 787.609 2921.13 777.269C2893 755.948 2892.83 899.495 2892.83 899.495" stroke="#8B7B66" stroke-width="5.6" stroke-miterlimit="10"/>
<path d="M2591.93 1568.43C2591.93 1568.43 2651.41 1325.98 2797.77 1183.51" stroke="#303518" stroke-width="5.6" stroke-miterlimit="10"/>
<path d="M2695.34 1318.03C2695.34 1318.03 2652.37 1271.7 2694.86 1203.31C2694.85 1203.3 2734.98 1242.06 2695.34 1318.03Z" fill="#303518"/>
<path d="M2664.32 1375.96C2664.32 1375.96 2705.26 1322.8 2748.99 1341.64C2748.99 1341.65 2723.98 1395.8 2664.32 1375.96Z" fill="#303518"/>
<path d="M2797.71 1183.5C2797.71 1183.5 2791.29 1118.76 2839.04 1112.36C2839.04 1112.36 2844.02 1165.01 2797.71 1183.5Z" fill="#303518"/>
<path d="M2637.42 1568.43C2637.42 1568.43 2646.76 1501.91 2684.58 1499.08C2722.41 1496.25 2697.17 1425.93 2753.12 1407.44C2809.07 1388.96 2766.91 1348.25 2839.2 1305.65C2911.48 1263.05 2895.35 1250.74 2902.95 1248.85C2910.53 1246.95 2908.63 1309.2 2865.96 1350.5C2823.29 1391.8 2869.75 1409.79 2832.77 1451.44C2795.78 1493.1 2840.53 1513.9 2797.77 1545.15C2755.01 1576.41 2750.27 1569.01 2736.04 1626.67C2721.81 1684.33 2651.41 1722.55 2651.41 1722.55L2637.42 1568.43Z" fill="#303518"/>
<path d="M2651.41 1791.49C2651.41 1791.49 2757.21 1657.55 2871.99 1644.18C2948.99 1635.2 2946.64 1698.37 2863.43 1717.84C2740.22 1746.66 2651.4 1851.32 2651.4 1851.32V1791.49H2651.41Z" fill="#606540"/>
<path d="M2651.41 1914.32C2651.41 1914.32 2833.61 1790.19 2943.33 1868.13C2974.66 1890.38 2958.1 1939.26 2859.12 1928.41C2740.22 1915.38 2651.41 1960.74 2651.41 1960.74V1914.32Z" fill="#6F7451"/>
<path d="M2651.41 2000.66H2014.12V1582.39C2014.12 1574.68 2020.39 1568.43 2028.11 1568.43H2637.42C2645.15 1568.43 2651.41 1574.68 2651.41 1582.39V2000.66Z" fill="url(#paint19_linear)"/>
<path d="M2637.42 1568.43H2028.11C2020.38 1568.43 2014.12 1574.68 2014.12 1582.39V1970.13H2651.42V1582.39C2651.41 1574.68 2645.15 1568.43 2637.42 1568.43Z" fill="#8B7B66"/>
<path d="M2721.78 2000.66H1943.74C1933.56 2000.66 1925.31 2006.93 1925.31 2017.1C1925.31 2027.26 1943.45 2037.48 1953.63 2037.48H2711.91C2722.09 2037.48 2740.23 2027.27 2740.23 2017.1C2740.23 2006.92 2731.96 2000.66 2721.78 2000.66Z" fill="url(#paint20_linear)"/>
<path d="M2625.15 1597.92H2040.37V1939.69H2625.15V1597.92Z" fill="#FEF5E8"/>
<path d="M2210.24 1649.8H2107.13V1752.74H2210.24V1649.8Z" fill="#606540"/>
<path d="M2270.33 1752.74H2483.18" stroke="#8B7B66" stroke-width="5.6" stroke-miterlimit="10"/>
<path d="M2270.33 1737.64H2483.18" stroke="#8B7B66" stroke-width="5.6" stroke-miterlimit="10"/>
<path d="M2270.33 1707.44H2483.18" stroke="#8B7B66" stroke-width="5.6" stroke-miterlimit="10"/>
<path d="M2270.33 1722.54H2483.18" stroke="#8B7B66" stroke-width="5.6" stroke-miterlimit="10"/>
<path d="M2270.33 1692.34H2375.61" stroke="#8B7B66" stroke-width="5.6" stroke-miterlimit="10"/>
<path d="M2558.39 1796.55H2107.13V1939.7H2558.39V1796.55Z" fill="#F0E3CD"/>
<path d="M2257.55 1796.55H2107.13V1836.58H2257.55V1796.55Z" fill="#BEAB88"/>
<path d="M2407.97 1796.55H2257.55V1836.58H2407.97V1796.55Z" fill="#8B7B66"/>
<path d="M2558.39 1796.55H2407.97V1836.58H2558.39V1796.55Z" fill="#BEAB88"/>
<path d="M2182.34 1920.58H2483.18" stroke="#8B7B66" stroke-width="5.6" stroke-miterlimit="10"/>
<path d="M2182.34 1905.48H2483.18" stroke="#8B7B66" stroke-width="5.6" stroke-miterlimit="10"/>
<path d="M2182.34 1875.27H2483.18" stroke="#8B7B66" stroke-width="5.6" stroke-miterlimit="10"/>
<path d="M2182.34 1890.37H2483.18" stroke="#8B7B66" stroke-width="5.6" stroke-miterlimit="10"/>
<path d="M2726.69 1650.47C2726.69 1650.47 2833.73 1563.59 2957.67 1531.37" stroke="#303518" stroke-width="5.6" stroke-miterlimit="10"/>
<path d="M2850.56 1572.58C2850.56 1572.58 2831.27 1520.65 2871.57 1494.9C2871.57 1494.9 2887.58 1536.53 2850.56 1572.58Z" fill="#303518"/>
<path d="M2881.11 1558.26C2881.11 1558.26 2906.4 1590.92 2948.34 1578.34C2948.34 1578.34 2930.95 1545.14 2881.11 1558.26Z" fill="#303518"/>
<path d="M2957.67 1531.37C2957.67 1531.37 2972.83 1494.9 3019.13 1504.39C3019.14 1504.39 3010.34 1538.08 2957.67 1531.37Z" fill="#303518"/>
<path d="M2651.41 1635.21C2651.41 1635.21 2712.84 1578.26 2748.99 1502.83C2767.28 1464.68 2808.34 1370.31 2845.95 1337.61" stroke="#FEF5E8" stroke-width="5.6" stroke-miterlimit="10"/>
<path d="M2651.41 1816.57C2651.41 1816.57 2777.28 1681.67 2881.1 1672.42" stroke="#FEF5E8" stroke-width="5.6" stroke-miterlimit="10"/>
<path d="M2651.41 1939.7C2651.41 1939.7 2785.53 1854.17 2906.4 1890.37" stroke="#FEF5E8" stroke-width="5.6" stroke-miterlimit="10"/>
<path d="M2839.23 789.275C2868.37 789.275 2891.99 755.488 2891.99 713.81C2891.99 672.132 2868.37 638.346 2839.23 638.346C2810.09 638.346 2786.46 672.132 2786.46 713.81C2786.46 755.488 2810.09 789.275 2839.23 789.275Z" fill="url(#paint21_radial)"/>
<path d="M2493.57 1597.92H2390.47L2107.13 1939.7H2210.24L2493.57 1597.92Z" fill="url(#paint22_linear)"/>
<path d="M2569.78 1597.92H2525.96L2242.61 1939.7H2286.45L2569.78 1597.92Z" fill="url(#paint23_linear)"/>
<path opacity="0.7" d="M2053.31 1083.45H1771.98C1763.74 1083.45 1757.07 1076.78 1757.07 1068.56V996.744H2068.21V1068.56C2068.21 1076.78 2061.54 1083.45 2053.31 1083.45Z" fill="#A18965"/>
<path d="M2046.2 1078.51H1764.87C1756.63 1078.51 1749.96 1071.84 1749.96 1063.62V996.733H2061.11V1063.62C2061.11 1071.84 2054.43 1078.51 2046.2 1078.51Z" fill="#F0E3CD"/>
<path opacity="0.7" d="M2514.39 1052.48L2238.54 1003.93C2230.92 1002.59 2225.84 995.344 2227.18 987.744L2238.34 924.591L2541.76 978.006L2530.6 1041.16C2529.26 1048.75 2522 1053.83 2514.39 1052.48Z" fill="#A18965"/>
<path d="M2506.49 1045.58L2230.64 997.029C2223.03 995.688 2217.94 988.443 2219.28 980.844L2229.5 922.964L2532.92 976.379L2522.7 1034.26C2521.36 1041.85 2514.09 1046.91 2506.49 1045.58Z" fill="#F0E3CD"/>
<path d="M1823.7 1757.67L1319.69 1846.39C1304.47 1849.07 1289.95 1838.92 1287.27 1823.73L1146.45 1026.38C1143.76 1011.18 1153.93 996.694 1169.15 994.013L1673.16 905.291C1688.38 902.61 1702.89 912.762 1705.58 927.952L1846.4 1725.3C1849.09 1740.5 1838.93 1754.99 1823.7 1757.67Z" fill="#BEAB88"/>
<path d="M1823.7 1757.67L1319.69 1846.39C1304.47 1849.07 1289.95 1838.92 1287.27 1823.73L1146.45 1026.38C1143.76 1011.18 1153.93 996.694 1169.15 994.013L1673.16 905.291C1688.38 902.61 1702.89 912.762 1705.58 927.952L1846.4 1725.3C1849.09 1740.5 1838.93 1754.99 1823.7 1757.67Z" fill="url(#paint24_linear)"/>
<path opacity="0.7" d="M1795.05 1705.86L1663.98 963.559L1215.1 1042.56L1346.17 1784.86L1795.05 1705.86Z" fill="#A18965"/>
<path d="M1786.35 1707.45L1655.28 965.143L1206.4 1044.14L1337.47 1786.44L1786.35 1707.45Z" fill="#FEF5E8"/>
<path opacity="0.59" d="M1337.54 1786.51L1206.44 1044.2L1655.31 965.182L1786.42 1707.49L1337.54 1786.51Z" fill="url(#paint25_linear)"/>
<path d="M1403.01 1120.59L1298.14 1139.05L1324.15 1286.36L1429.02 1267.91L1403.01 1120.59Z" fill="#6F7451"/>
<path d="M1454.49 1220.72L1620.29 1191.54" stroke="#8B7B66" stroke-width="5.6" stroke-miterlimit="10"/>
<path d="M1458.15 1241.41L1623.96 1212.23" stroke="#8B7B66" stroke-width="5.6" stroke-miterlimit="10"/>
<path d="M1461.8 1262.1L1627.61 1232.92" stroke="#8B7B66" stroke-width="5.6" stroke-miterlimit="10"/>
<path d="M1452.82 1199.68L1535.73 1185.08" stroke="#8B7B66" stroke-width="5.6" stroke-miterlimit="10"/>
<path d="M1336.78 1357.61L1640.2 1304.2" stroke="#8B7B66" stroke-width="5.6" stroke-miterlimit="10"/>
<path d="M1341.81 1386.08L1645.22 1332.67" stroke="#8B7B66" stroke-width="5.6" stroke-miterlimit="10"/>
<path d="M1577.27 1724.91C1585.1 1717.1 1597.79 1717.1 1605.62 1724.91L1646.34 1765.56C1654.17 1773.38 1654.17 1786.06 1646.34 1793.87C1638.51 1801.69 1625.81 1801.69 1617.98 1793.87L1577.27 1753.22C1569.44 1745.41 1569.44 1732.73 1577.27 1724.91Z" fill="#8B7B66"/>
<path d="M1377.27 1793.87C1385.1 1801.69 1397.8 1801.69 1405.63 1793.87L1446.35 1753.22C1454.18 1745.41 1454.18 1732.73 1446.35 1724.91C1438.52 1717.1 1425.82 1717.1 1417.99 1724.91L1377.27 1765.56C1369.44 1773.38 1369.44 1786.06 1377.27 1793.87Z" fill="#8B7B66"/>
<path d="M1577.27 1724.91C1585.1 1717.1 1597.79 1717.1 1605.62 1724.91L1646.34 1765.56C1654.17 1773.38 1654.17 1786.06 1646.34 1793.87C1638.51 1801.69 1625.81 1801.69 1617.98 1793.87L1577.27 1753.22C1569.44 1745.41 1569.44 1732.73 1577.27 1724.91Z" fill="url(#paint26_linear)"/>
<path d="M1377.27 1793.87C1385.1 1801.69 1397.8 1801.69 1405.63 1793.87L1446.35 1753.22C1454.18 1745.41 1454.18 1732.73 1446.35 1724.91C1438.52 1717.1 1425.82 1717.1 1417.99 1724.91L1377.27 1765.56C1369.44 1773.38 1369.44 1786.06 1377.27 1793.87Z" fill="url(#paint27_linear)"/>
<path d="M1511.81 1766.69C1589.35 1766.69 1652.2 1703.93 1652.2 1626.52C1652.2 1549.11 1589.35 1486.36 1511.81 1486.36C1434.27 1486.36 1371.41 1549.11 1371.41 1626.52C1371.41 1703.93 1434.27 1766.69 1511.81 1766.69Z" fill="#8B7B66"/>
<path d="M1511.81 1751.7C1581.05 1751.7 1637.19 1695.65 1637.19 1626.52C1637.19 1557.39 1581.05 1501.35 1511.81 1501.35C1442.56 1501.35 1386.43 1557.39 1386.43 1626.52C1386.43 1695.65 1442.56 1751.7 1511.81 1751.7Z" fill="white"/>
<path d="M1396.52 1478.23C1404.87 1478.23 1411.63 1471.47 1411.63 1463.13C1411.63 1454.8 1404.87 1448.04 1396.52 1448.04C1388.17 1448.04 1381.4 1454.8 1381.4 1463.13C1381.4 1471.47 1388.17 1478.23 1396.52 1478.23Z" fill="#8B7B66"/>
<path d="M1626.8 1478.23C1635.15 1478.23 1641.92 1471.47 1641.92 1463.13C1641.92 1454.8 1635.15 1448.04 1626.8 1448.04C1618.45 1448.04 1611.68 1454.8 1611.68 1463.13C1611.68 1471.47 1618.45 1478.23 1626.8 1478.23Z" fill="#8B7B66"/>
<path d="M1504.44 1524.43V1543.02C1504.44 1543.51 1504.92 1543.88 1505.88 1544.1C1506.84 1544.33 1507.85 1544.44 1508.88 1544.44V1545.19H1496.8V1544.44C1497.84 1544.44 1498.83 1544.33 1499.8 1544.1C1500.77 1543.88 1501.24 1543.52 1501.24 1543.02V1529.43C1500.25 1530.02 1498.99 1530.88 1497.47 1532.02L1497.22 1531.42L1503.5 1524.43H1504.44Z" fill="#BEAB88"/>
<path d="M1511.91 1545.18C1511.91 1544.93 1512.25 1544.43 1512.95 1543.68C1513.65 1542.93 1514.5 1542.06 1515.49 1541.06C1516.48 1540.07 1517.47 1539 1518.46 1537.87C1519.45 1536.74 1520.29 1535.5 1520.99 1534.18C1521.69 1532.86 1522.04 1531.63 1522.04 1530.5C1522.04 1529.41 1521.72 1528.42 1521.1 1527.53C1520.48 1526.64 1519.58 1526.2 1518.41 1526.2C1517.41 1526.2 1516.54 1526.32 1515.78 1526.55C1515.02 1526.79 1514.45 1527.08 1514.08 1527.4C1513.7 1527.74 1513.39 1528.06 1513.14 1528.4C1512.89 1528.73 1512.7 1529.01 1512.58 1529.25C1512.44 1529.48 1512.34 1529.6 1512.27 1529.6C1512.07 1529.6 1511.97 1529.48 1511.97 1529.25C1511.97 1528.99 1512.09 1528.59 1512.33 1528.07C1512.57 1527.55 1512.92 1526.98 1513.4 1526.35C1513.87 1525.72 1514.57 1525.18 1515.49 1524.73C1516.42 1524.28 1517.45 1524.06 1518.62 1524.06C1520.82 1524.06 1522.48 1524.63 1523.58 1525.79C1524.68 1526.93 1525.22 1528.35 1525.22 1530.02C1525.22 1530.99 1524.76 1532.19 1523.84 1533.62C1522.92 1535.05 1521.88 1536.36 1520.7 1537.54C1519.53 1538.73 1518.46 1539.83 1517.48 1540.85C1516.51 1541.86 1516.02 1542.48 1516.02 1542.69H1523.53C1524.41 1542.27 1525.08 1541.52 1525.5 1540.45H1526.21L1524.86 1545.17H1511.91V1545.18Z" fill="#BEAB88"/>
<path d="M1599.96 1630.15C1599.8 1630.15 1599.66 1630.1 1599.52 1630C1599.39 1629.9 1599.32 1629.8 1599.32 1629.67C1599.32 1629.57 1599.4 1629.48 1599.56 1629.41C1600.76 1629.04 1601.8 1628.46 1602.68 1627.7C1603.56 1626.93 1604.01 1625.91 1604.01 1624.64C1604.01 1623.67 1603.69 1622.91 1603.04 1622.34C1602.38 1621.78 1601.47 1621.5 1600.27 1621.5C1599.31 1621.5 1598.49 1621.63 1597.82 1621.92C1597.15 1622.21 1596.69 1622.52 1596.44 1622.88C1596.19 1623.23 1595.99 1623.55 1595.81 1623.83C1595.63 1624.12 1595.5 1624.26 1595.4 1624.26C1595.22 1624.26 1595.13 1624.14 1595.13 1623.9C1595.13 1623.64 1595.24 1623.29 1595.44 1622.84C1595.66 1622.38 1595.97 1621.89 1596.38 1621.35C1596.8 1620.81 1597.39 1620.33 1598.16 1619.95C1598.93 1619.55 1599.79 1619.37 1600.74 1619.37C1603.01 1619.37 1604.66 1619.77 1605.67 1620.57C1606.69 1621.37 1607.2 1622.58 1607.2 1624.18C1607.2 1625.87 1606.01 1627.38 1603.61 1628.7C1604.8 1628.99 1605.87 1629.71 1606.79 1630.86C1607.71 1632.01 1608.17 1633.19 1608.17 1634.38C1608.17 1635.31 1608.07 1636.12 1607.86 1636.84C1607.66 1637.56 1607.29 1638.24 1606.77 1638.86C1606.24 1639.49 1605.46 1639.98 1604.44 1640.32C1603.41 1640.67 1602.15 1640.84 1600.67 1640.84C1599.68 1640.84 1598.75 1640.72 1597.86 1640.48C1596.97 1640.24 1596.26 1639.96 1595.71 1639.63C1595.16 1639.3 1594.72 1638.97 1594.4 1638.66C1594.07 1638.34 1593.91 1638.09 1593.91 1637.93C1593.91 1637.22 1594 1636.72 1594.18 1636.44C1594.36 1636.15 1594.7 1636.02 1595.21 1636.02C1595.44 1636.02 1595.65 1636.14 1595.82 1636.41C1595.99 1636.67 1596.15 1636.98 1596.32 1637.35C1596.49 1637.71 1596.71 1638.08 1596.97 1638.45C1597.24 1638.81 1597.66 1639.13 1598.27 1639.39C1598.87 1639.64 1599.6 1639.78 1600.46 1639.78C1603.47 1639.78 1604.97 1638.22 1604.97 1635.1C1604.97 1634.49 1604.88 1633.81 1604.69 1633.07C1604.51 1632.33 1604.14 1631.63 1603.59 1630.97C1603.04 1630.31 1602.36 1629.97 1601.57 1629.97C1601.31 1629.97 1601.03 1630 1600.74 1630.06C1600.43 1630.12 1600.17 1630.15 1599.96 1630.15Z" fill="#BEAB88"/>
<path d="M1507.25 1715.49C1508.21 1714.92 1509.32 1714.64 1510.55 1714.64C1513.11 1714.64 1514.88 1715.2 1515.85 1716.3C1516.81 1717.4 1517.31 1718.99 1517.31 1721.06C1517.31 1723.25 1516.72 1724.97 1515.57 1726.24C1514.4 1727.5 1512.78 1728.13 1510.7 1728.13C1508.45 1728.13 1506.71 1727.36 1505.5 1725.81C1504.28 1724.26 1503.67 1722.26 1503.67 1719.8C1503.67 1717.82 1504.02 1715.97 1504.7 1714.26C1505.39 1712.54 1506.26 1711.16 1507.31 1710.08C1508.37 1709.01 1509.46 1708.15 1510.56 1707.51C1511.68 1706.87 1512.72 1706.49 1513.69 1706.37L1514.12 1707.02C1512.36 1707.47 1510.9 1708.41 1509.71 1709.85C1508.51 1711.29 1507.7 1713.18 1507.25 1715.49ZM1510.62 1715.85C1509.08 1715.85 1507.9 1716.11 1507.07 1716.66C1506.93 1717.64 1506.85 1718.69 1506.85 1719.79C1506.85 1722.23 1507.22 1724.03 1507.94 1725.18C1508.66 1726.33 1509.58 1726.91 1510.69 1726.91C1511.71 1726.91 1512.54 1726.33 1513.16 1725.2C1513.79 1724.06 1514.1 1722.59 1514.1 1720.78C1514.1 1719.98 1514.01 1719.23 1513.83 1718.54C1513.65 1717.85 1513.29 1717.23 1512.73 1716.67C1512.18 1716.12 1511.47 1715.85 1510.62 1715.85Z" fill="#BEAB88"/>
<path d="M1419.86 1631.99C1418.89 1632.57 1417.78 1632.84 1416.55 1632.84C1413.99 1632.84 1412.23 1632.29 1411.26 1631.19C1410.29 1630.08 1409.8 1628.5 1409.8 1626.43C1409.8 1624.24 1410.38 1622.51 1411.53 1621.25C1412.69 1619.99 1414.32 1619.36 1416.4 1619.36C1418.65 1619.36 1420.39 1620.14 1421.6 1621.69C1422.82 1623.25 1423.43 1625.25 1423.43 1627.69C1423.43 1629.67 1423.09 1631.52 1422.4 1633.23C1421.71 1634.94 1420.84 1636.33 1419.79 1637.41C1418.73 1638.48 1417.65 1639.34 1416.54 1639.97C1415.42 1640.61 1414.39 1640.98 1413.41 1641.1L1412.99 1640.46C1414.74 1640.01 1416.2 1639.06 1417.39 1637.62C1418.59 1636.19 1419.4 1634.31 1419.86 1631.99ZM1416.48 1631.64C1418.02 1631.64 1419.21 1631.37 1420.03 1630.83C1420.17 1629.85 1420.25 1628.8 1420.25 1627.7C1420.25 1625.25 1419.89 1623.46 1419.17 1622.31C1418.45 1621.15 1417.53 1620.58 1416.41 1620.58C1415.39 1620.58 1414.57 1621.15 1413.94 1622.3C1413.31 1623.44 1413.01 1624.91 1413.01 1626.72C1413.01 1627.52 1413.09 1628.27 1413.27 1628.96C1413.45 1629.65 1413.81 1630.28 1414.38 1630.83C1414.92 1631.36 1415.63 1631.64 1416.48 1631.64Z" fill="#BEAB88"/>
<path d="M1552.86 1538.2V1556.79C1552.86 1557.28 1553.34 1557.64 1554.3 1557.87C1555.26 1558.1 1556.27 1558.21 1557.3 1558.21V1558.95H1545.22V1558.21C1546.25 1558.21 1547.25 1558.1 1548.22 1557.87C1549.19 1557.64 1549.66 1557.29 1549.66 1556.79V1543.19C1548.66 1543.78 1547.41 1544.65 1545.89 1545.79L1545.64 1545.18L1551.92 1538.2H1552.86V1538.2Z" fill="#BEAB88"/>
<path d="M1592.03 1663.32V1676.77H1594.91V1677.83H1592.03V1682.62C1592.24 1683.09 1592.98 1683.33 1594.27 1683.33V1684.08H1586.59V1683.33C1587.87 1683.33 1588.61 1683.09 1588.83 1682.62V1677.83H1580.41L1590.18 1663.32H1592.03ZM1588.83 1676.78V1667.23L1582.36 1676.78H1588.83Z" fill="#BEAB88"/>
<path d="M1464.17 1717.03C1464.17 1715.83 1464.68 1713.87 1465.72 1711.16C1466.75 1708.45 1467.78 1705.89 1468.83 1703.49C1469.87 1701.08 1470.39 1699.63 1470.39 1699.14H1462.61C1461.64 1699.56 1460.94 1700.31 1460.52 1701.38H1459.8L1461.16 1696.66H1473.1C1473.1 1697.01 1472.57 1698.47 1471.5 1701.04C1470.44 1703.61 1469.38 1706.47 1468.32 1709.63C1467.27 1712.78 1466.75 1715.26 1466.75 1717.03C1466.75 1717.27 1466.61 1717.45 1466.32 1717.58C1466.03 1717.71 1465.74 1717.78 1465.43 1717.78C1464.58 1717.78 1464.17 1717.52 1464.17 1717.03Z" fill="#BEAB88"/>
<path d="M1426.62 1574.47V1593.06C1426.62 1593.56 1427.1 1593.92 1428.06 1594.15C1429.02 1594.37 1430.03 1594.48 1431.06 1594.48V1595.23H1418.98V1594.48C1420.02 1594.48 1421.01 1594.37 1421.98 1594.15C1422.95 1593.92 1423.42 1593.57 1423.42 1593.06V1579.47C1422.42 1580.06 1421.17 1580.93 1419.65 1582.06L1419.4 1581.46L1425.68 1574.47H1426.62V1574.47Z" fill="#BEAB88"/>
<path d="M1435.88 1592.48C1434.54 1590.42 1433.88 1587.87 1433.88 1584.86C1433.88 1581.84 1434.55 1579.3 1435.88 1577.22C1437.22 1575.14 1439.05 1574.1 1441.37 1574.1C1443.69 1574.1 1445.53 1575.14 1446.86 1577.22C1448.2 1579.3 1448.86 1581.84 1448.86 1584.86C1448.86 1587.87 1448.19 1590.42 1446.86 1592.48C1445.52 1594.54 1443.69 1595.57 1441.37 1595.57C1439.05 1595.58 1437.22 1594.55 1435.88 1592.48ZM1438.3 1578.12C1437.48 1580.08 1437.08 1582.33 1437.08 1584.87C1437.08 1587.41 1437.48 1589.65 1438.3 1591.6C1439.12 1593.55 1440.15 1594.52 1441.37 1594.52C1442.61 1594.52 1443.63 1593.54 1444.44 1591.6C1445.26 1589.65 1445.67 1587.41 1445.67 1584.87C1445.67 1582.33 1445.26 1580.08 1444.44 1578.12C1443.62 1576.15 1442.6 1575.18 1441.37 1575.18C1440.15 1575.17 1439.12 1576.15 1438.3 1578.12Z" fill="#BEAB88"/>
<path d="M1575.38 1582.23C1575.38 1581.97 1575.73 1581.47 1576.43 1580.72C1577.13 1579.97 1577.98 1579.1 1578.96 1578.11C1579.95 1577.11 1580.95 1576.05 1581.94 1574.91C1582.92 1573.78 1583.76 1572.55 1584.46 1571.23C1585.17 1569.91 1585.51 1568.67 1585.51 1567.54C1585.51 1566.46 1585.19 1565.46 1584.57 1564.57C1583.95 1563.69 1583.05 1563.24 1581.89 1563.24C1580.89 1563.24 1580.01 1563.36 1579.25 1563.6C1578.49 1563.83 1577.93 1564.12 1577.55 1564.44C1577.18 1564.78 1576.86 1565.1 1576.61 1565.44C1576.37 1565.78 1576.18 1566.05 1576.05 1566.29C1575.91 1566.52 1575.82 1566.64 1575.75 1566.64C1575.55 1566.64 1575.45 1566.52 1575.45 1566.29C1575.45 1566.03 1575.57 1565.64 1575.81 1565.11C1576.04 1564.59 1576.4 1564.02 1576.87 1563.39C1577.35 1562.76 1578.05 1562.23 1578.96 1561.77C1579.89 1561.32 1580.93 1561.1 1582.09 1561.1C1584.3 1561.1 1585.95 1561.67 1587.05 1562.83C1588.16 1563.97 1588.7 1565.39 1588.7 1567.07C1588.7 1568.03 1588.24 1569.23 1587.32 1570.66C1586.4 1572.09 1585.35 1573.4 1584.18 1574.59C1583 1575.77 1581.94 1576.87 1580.96 1577.89C1579.98 1578.9 1579.5 1579.53 1579.5 1579.73H1587C1587.89 1579.31 1588.55 1578.56 1588.98 1577.5H1589.69L1588.33 1582.22H1575.38V1582.23Z" fill="#BEAB88"/>
<path d="M1550.48 1702.91C1554.39 1702.91 1557.18 1703.55 1558.87 1704.85C1560.56 1706.14 1561.4 1707.75 1561.4 1709.68C1561.4 1710.61 1561.29 1711.47 1561.08 1712.28C1560.87 1713.09 1560.53 1713.85 1560.06 1714.6C1559.58 1715.35 1558.87 1715.93 1557.92 1716.36C1556.98 1716.78 1555.84 1717 1554.51 1717C1553.04 1717 1551.72 1716.79 1550.56 1716.38C1549.39 1715.96 1548.58 1715.54 1548.11 1715.12C1547.64 1714.69 1547.4 1714.35 1547.4 1714.09C1547.4 1713.38 1547.49 1712.89 1547.66 1712.6C1547.82 1712.32 1548.16 1712.18 1548.64 1712.18C1548.87 1712.18 1549.07 1712.31 1549.22 1712.57C1549.36 1712.83 1549.52 1713.14 1549.69 1713.51C1549.86 1713.87 1550.08 1714.24 1550.35 1714.61C1550.63 1714.98 1551.09 1715.29 1551.74 1715.55C1552.4 1715.81 1553.2 1715.94 1554.14 1715.94C1554.9 1715.94 1555.57 1715.76 1556.14 1715.37C1556.7 1715 1557.13 1714.5 1557.4 1713.9C1557.68 1713.3 1557.89 1712.71 1558.01 1712.13C1558.14 1711.55 1558.2 1710.98 1558.2 1710.4C1558.2 1706.33 1555.16 1704.3 1549.07 1704.3L1550.26 1695.9H1560.32L1559.4 1698.38H1551.13L1550.48 1702.91Z" fill="#BEAB88"/>
<path d="M1434.21 1675.55C1435.67 1676.64 1436.81 1677.66 1437.62 1678.64C1438.43 1679.61 1438.83 1680.68 1438.83 1681.82C1438.83 1683.18 1438.2 1684.31 1436.95 1685.22C1435.69 1686.13 1434.07 1686.58 1432.08 1686.58C1429.95 1686.58 1428.29 1686.12 1427.1 1685.2C1425.92 1684.28 1425.33 1683.06 1425.33 1681.53C1425.33 1679.12 1426.79 1677.12 1429.72 1675.54C1427.07 1673.52 1425.75 1671.6 1425.75 1669.77C1425.75 1668.45 1426.32 1667.35 1427.48 1666.45C1428.62 1665.56 1430.17 1665.11 1432.12 1665.11C1434.22 1665.11 1435.82 1665.55 1436.9 1666.42C1437.97 1667.29 1438.52 1668.5 1438.52 1670.06C1438.52 1672.29 1437.09 1674.11 1434.21 1675.55ZM1430.81 1676.4C1428.74 1677.59 1427.72 1679.41 1427.72 1681.82C1427.72 1682.81 1428.1 1683.64 1428.86 1684.33C1429.62 1685.02 1430.48 1685.37 1431.43 1685.37C1432.75 1685.37 1433.79 1685.02 1434.53 1684.33C1435.27 1683.64 1435.64 1682.72 1435.64 1681.56C1435.64 1681.38 1435.62 1681.18 1435.58 1680.98C1435.53 1680.79 1435.44 1680.58 1435.32 1680.38C1435.19 1680.18 1435.06 1680 1434.93 1679.84C1434.81 1679.67 1434.63 1679.48 1434.41 1679.26C1434.19 1679.03 1434 1678.84 1433.84 1678.7C1433.68 1678.55 1433.43 1678.35 1433.13 1678.11C1432.82 1677.88 1432.57 1677.7 1432.4 1677.57C1432.22 1677.44 1431.95 1677.25 1431.6 1676.97C1431.23 1676.7 1430.96 1676.52 1430.81 1676.4ZM1433.14 1674.74C1435.14 1673.66 1436.14 1672 1436.14 1669.78C1436.14 1668.67 1435.81 1667.82 1435.17 1667.22C1434.53 1666.62 1433.73 1666.33 1432.78 1666.33C1430.23 1666.33 1428.95 1667.56 1428.95 1670.02C1428.95 1670.53 1429.17 1671.09 1429.61 1671.66C1430.06 1672.23 1430.51 1672.71 1430.98 1673.1C1431.47 1673.49 1432.18 1674.03 1433.14 1674.74Z" fill="#BEAB88"/>
<path d="M1460.25 1538.2V1556.79C1460.25 1557.28 1460.73 1557.64 1461.69 1557.87C1462.65 1558.1 1463.66 1558.21 1464.69 1558.21V1558.95H1452.61V1558.21C1453.64 1558.21 1454.64 1558.1 1455.61 1557.87C1456.58 1557.64 1457.05 1557.29 1457.05 1556.79V1543.19C1456.05 1543.78 1454.8 1544.65 1453.28 1545.79L1453.03 1545.18L1459.31 1538.2H1460.25V1538.2Z" fill="#BEAB88"/>
<path d="M1477.67 1538.2V1556.79C1477.67 1557.28 1478.15 1557.64 1479.11 1557.87C1480.06 1558.1 1481.07 1558.21 1482.11 1558.21V1558.95H1470.02V1558.21C1471.06 1558.21 1472.06 1558.1 1473.02 1557.87C1473.99 1557.64 1474.47 1557.29 1474.47 1556.79V1543.19C1473.47 1543.78 1472.22 1544.65 1470.69 1545.79L1470.45 1545.18L1476.73 1538.2H1477.67V1538.2Z" fill="#BEAB88"/>
<path d="M1511.81 1632.01C1514.84 1632.01 1517.31 1629.55 1517.31 1626.52C1517.31 1623.49 1514.84 1621.03 1511.81 1621.03C1508.77 1621.03 1506.31 1623.49 1506.31 1626.52C1506.31 1629.55 1508.77 1632.01 1511.81 1632.01Z" fill="#8B7B66"/>
<path d="M1514.55 1626.52H1509.05V1565.86L1511.81 1558.95L1514.55 1565.86V1626.52Z" fill="#8B7B66"/>
<path d="M1511.32 1559.23L1503.53 1572.7C1503.32 1573.08 1503.58 1573.54 1504.02 1573.54H1519.61C1520.04 1573.54 1520.31 1573.08 1520.09 1572.7L1512.3 1559.23C1512.07 1558.87 1511.53 1558.87 1511.32 1559.23Z" fill="#8B7B66"/>
<path d="M1511.81 1629.27V1623.78H1560.95L1566.54 1626.52L1560.95 1629.27H1511.81Z" fill="#8B7B66"/>
<path d="M1566.27 1626.04L1552.77 1618.26C1552.4 1618.05 1551.93 1618.31 1551.93 1618.75V1634.31C1551.93 1634.74 1552.4 1635.01 1552.77 1634.79L1566.27 1627.02C1566.63 1626.79 1566.63 1626.26 1566.27 1626.04Z" fill="#8B7B66"/>
<path d="M1396.52 1463.13C1372.5 1476.97 1364.27 1507.64 1378.13 1531.62L1465.11 1481.49C1451.24 1457.51 1420.54 1449.29 1396.52 1463.13Z" fill="#8B7B66"/>
<path d="M1626.8 1463.13C1602.78 1449.3 1572.07 1457.51 1558.2 1481.49L1645.17 1531.62C1659.05 1507.64 1650.81 1476.97 1626.8 1463.13Z" fill="#8B7B66"/>
<path d="M1396.52 1463.13C1372.5 1476.97 1364.27 1507.64 1378.13 1531.62L1465.11 1481.49C1451.24 1457.51 1420.54 1449.29 1396.52 1463.13Z" fill="url(#paint28_linear)"/>
<path d="M1626.8 1463.13C1602.78 1449.3 1572.07 1457.51 1558.2 1481.49L1645.17 1531.62C1659.05 1507.64 1650.81 1476.97 1626.8 1463.13Z" fill="url(#paint29_linear)"/>
<path d="M1905.8 1799.73H1166.78V1925.87H1905.8V1799.73Z" fill="#8B7B66"/>
<path d="M1905.8 1799.73H1166.78V1925.87H1905.8V1799.73Z" fill="url(#paint30_linear)"/>
<path d="M1278.22 1896.56V1894.39C1281.94 1894.39 1284.11 1893.7 1284.73 1892.33V1840.42C1284.11 1839.04 1281.94 1838.36 1278.22 1838.36V1836.19H1293.31L1315.34 1884.19L1337.35 1836.19H1352.67V1838.36C1348.83 1838.36 1346.59 1839.05 1345.95 1840.42V1892.33C1346.59 1893.71 1348.83 1894.39 1352.67 1894.39V1896.56H1329.92V1894.39C1333.76 1894.39 1336 1893.7 1336.65 1892.33V1845.99L1313.48 1896.56H1311.93L1288.26 1845.37V1892.33C1288.88 1893.71 1291.05 1894.39 1294.77 1894.39V1896.56H1278.22Z" fill="#FEF5E8"/>
<path d="M1391.74 1896.56V1894.4C1394.91 1894.4 1396.91 1893.98 1397.73 1893.16L1391.94 1877.46H1372.08L1366.7 1892.54C1367.39 1893.77 1369.52 1894.39 1373.11 1894.39V1896.55H1356.16V1894.39C1360.02 1894.39 1362.19 1893.67 1362.67 1892.22L1382.73 1836.17H1387.7L1407.76 1892.22C1408.25 1893.67 1410.45 1894.39 1414.38 1894.39V1896.55H1391.74V1896.56ZM1381.92 1849.91L1373.34 1873.96H1390.71L1381.92 1849.91Z" fill="#FEF5E8"/>
<path d="M1415.32 1836.18H1467.12V1846.19H1464.95C1464.95 1842.48 1464.26 1840.31 1462.87 1839.69H1445.81V1892.34C1446.46 1893.72 1448.7 1894.4 1452.54 1894.4V1896.56H1429.79V1894.4C1433.63 1894.4 1435.87 1893.71 1436.51 1892.34V1839.69H1419.56C1418.18 1840.31 1417.5 1842.48 1417.5 1846.19H1415.33V1836.18H1415.32Z" fill="#FEF5E8"/>
<path d="M1473.21 1896.56V1894.4C1477.05 1894.4 1479.29 1893.71 1479.94 1892.34V1840.42C1479.29 1839.04 1477.05 1838.36 1473.21 1838.36V1836.19H1495.96V1838.36C1492.12 1838.36 1489.88 1839.05 1489.24 1840.42V1863.43H1515.82V1840.42C1515.17 1839.04 1512.93 1838.36 1509.09 1838.36V1836.19H1531.84V1838.36C1528 1838.36 1525.76 1839.05 1525.12 1840.42V1892.34C1525.76 1893.72 1528 1894.4 1531.84 1894.4V1896.56H1509.09V1894.4C1512.93 1894.4 1515.17 1893.71 1515.82 1892.34V1866.94H1489.25V1892.34C1489.89 1893.72 1492.13 1894.4 1495.97 1894.4V1896.56H1473.21Z" fill="#FEF5E8"/>
<path d="M1278.22 1896.56V1894.4C1281.94 1894.4 1284.11 1893.71 1284.73 1892.34V1840.42C1284.11 1839.04 1281.94 1838.36 1278.22 1838.36V1836.19H1293.31L1315.34 1884.19L1337.35 1836.19H1352.67V1838.36C1348.83 1838.36 1346.59 1839.05 1345.95 1840.42V1892.34C1346.59 1893.72 1348.83 1894.4 1352.67 1894.4V1896.56H1329.92V1894.4C1333.76 1894.4 1336 1893.71 1336.65 1892.34V1845.99L1313.48 1896.56H1311.93L1288.26 1845.37V1892.34C1288.88 1893.72 1291.05 1894.4 1294.77 1894.4V1896.56H1278.22ZM1391.74 1896.56V1894.4C1394.91 1894.4 1396.91 1893.98 1397.73 1893.16L1391.94 1877.46H1372.08L1366.7 1892.54C1367.39 1893.77 1369.52 1894.39 1373.11 1894.39V1896.55H1356.16V1894.39C1360.02 1894.39 1362.19 1893.67 1362.67 1892.22L1382.73 1836.17H1387.7L1407.76 1892.22C1408.25 1893.67 1410.45 1894.39 1414.38 1894.39V1896.55H1391.74V1896.56ZM1381.92 1849.91L1373.34 1873.96H1390.71L1381.92 1849.91ZM1415.32 1836.18H1467.12V1846.2H1464.95C1464.95 1842.48 1464.26 1840.31 1462.87 1839.69H1445.81V1892.34C1446.46 1893.72 1448.7 1894.4 1452.54 1894.4V1896.56H1429.79V1894.4C1433.63 1894.4 1435.87 1893.71 1436.51 1892.34V1839.69H1419.56C1418.18 1840.31 1417.5 1842.48 1417.5 1846.2H1415.33V1836.18H1415.32ZM1473.21 1896.56V1894.4C1477.05 1894.4 1479.29 1893.71 1479.94 1892.34V1840.42C1479.29 1839.04 1477.05 1838.36 1473.21 1838.36V1836.19H1495.96V1838.36C1492.12 1838.36 1489.88 1839.05 1489.24 1840.42V1863.44H1515.82V1840.42C1515.17 1839.04 1512.93 1838.36 1509.09 1838.36V1836.19H1531.84V1838.36C1528 1838.36 1525.76 1839.05 1525.12 1840.42V1892.34C1525.76 1893.72 1528 1894.4 1531.84 1894.4V1896.56H1509.09V1894.4C1512.93 1894.4 1515.17 1893.71 1515.82 1892.34V1866.94H1489.25V1892.34C1489.89 1893.72 1492.13 1894.4 1495.97 1894.4V1896.56H1473.21Z" fill="url(#paint31_linear)"/>
<path d="M1642.93 1866.37H1678.72" stroke="#FEF5E8" stroke-width="5.6" stroke-miterlimit="10"/>
<path d="M1695.77 1866.37H1731.56" stroke="#FEF5E8" stroke-width="5.6" stroke-miterlimit="10"/>
<path d="M1800.32 1866.37H1836.11" stroke="#FEF5E8" stroke-width="5.6" stroke-miterlimit="10"/>
<path d="M1752.01 1853.74L1777.32 1879.01" stroke="#FEF5E8" stroke-width="5.6" stroke-miterlimit="10"/>
<path d="M1777.32 1853.74L1752.01 1879.01" stroke="#FEF5E8" stroke-width="5.6" stroke-miterlimit="10"/>
<path d="M1660.83 1848.51V1884.23" stroke="#FEF5E8" stroke-width="5.6" stroke-miterlimit="10"/>
<path d="M1818.21 1858.27C1819.82 1858.27 1821.13 1856.97 1821.13 1855.36C1821.13 1853.76 1819.82 1852.45 1818.21 1852.45C1816.6 1852.45 1815.3 1853.76 1815.3 1855.36C1815.3 1856.97 1816.6 1858.27 1818.21 1858.27Z" fill="#FEF5E8"/>
<path d="M1818.21 1880.29C1819.82 1880.29 1821.13 1878.99 1821.13 1877.38C1821.13 1875.78 1819.82 1874.47 1818.21 1874.47C1816.6 1874.47 1815.3 1875.78 1815.3 1877.38C1815.3 1878.99 1816.6 1880.29 1818.21 1880.29Z" fill="#FEF5E8"/>
<path opacity="0.7" d="M1580.62 1001.95L1304.77 1050.5C1297.16 1051.84 1289.91 1046.77 1288.56 1039.17L1276.83 975.098L1580.25 921.683L1591.98 985.753C1593.32 993.363 1588.24 1000.61 1580.62 1001.95Z" fill="#A18965"/>
<path d="M1571.74 997.02L1295.89 1045.57C1288.28 1046.92 1281.02 1041.84 1279.68 1034.24L1269.46 976.36L1572.87 922.945L1583.09 980.825C1584.42 988.434 1579.35 995.679 1571.74 997.02Z" fill="#F0E3CD"/>
<path d="M2506.49 1045.58L2230.64 997.029C2223.03 995.688 2217.94 988.443 2219.28 980.844L2229.5 922.964L2532.92 976.379L2522.7 1034.26C2521.36 1041.85 2514.09 1046.91 2506.49 1045.58Z" fill="url(#paint32_linear)"/>
<path d="M2046.2 1078.51H1764.87C1756.63 1078.51 1749.96 1071.84 1749.96 1063.62V996.733H2061.11V1063.62C2061.11 1071.84 2054.43 1078.51 2046.2 1078.51Z" fill="url(#paint33_linear)"/>
<path d="M1571.74 997.02L1295.89 1045.57C1288.28 1046.92 1281.02 1041.84 1279.68 1034.24L1269.46 976.36L1572.87 922.945L1583.09 980.825C1584.42 988.434 1579.35 995.679 1571.74 997.02Z" fill="url(#paint34_linear)"/>
<defs>
<linearGradient id="paint0_linear" x1="1898.1" y1="960.316" x2="1898.1" y2="549.002" gradientUnits="userSpaceOnUse">
<stop stop-color="#F7F6F4" stop-opacity="0"/>
<stop offset="0.0481" stop-color="#D8D1CB" stop-opacity="0.0481"/>
<stop offset="0.1183" stop-color="#B5A89E" stop-opacity="0.1183"/>
<stop offset="0.1964" stop-color="#98887B" stop-opacity="0.1964"/>
<stop offset="0.2828" stop-color="#837062" stop-opacity="0.2828"/>
<stop offset="0.3813" stop-color="#735F51" stop-opacity="0.3813"/>
<stop offset="0.4989" stop-color="#685447" stop-opacity="0.4989"/>
<stop offset="0.6546" stop-color="#624E41" stop-opacity="0.6546"/>
<stop offset="1" stop-color="#604C3F"/>
</linearGradient>
<linearGradient id="paint1_linear" x1="1529.87" y1="766.202" x2="1614.88" y2="766.202" gradientUnits="userSpaceOnUse">
<stop stop-color="white" stop-opacity="0"/>
<stop offset="1" stop-color="#BEAB88" stop-opacity="0.5"/>
</linearGradient>
<linearGradient id="paint2_linear" x1="1900" y1="2400.01" x2="1900" y2="1969" gradientUnits="userSpaceOnUse">
<stop stop-color="#604C3F" stop-opacity="0.6"/>
<stop offset="0.1224" stop-color="#675346" stop-opacity="0.5266"/>
<stop offset="0.3165" stop-color="#7B675A" stop-opacity="0.4101"/>
<stop offset="0.5579" stop-color="#9D8D81" stop-opacity="0.2652"/>
<stop offset="0.8347" stop-color="#D1C9C2" stop-opacity="0.0992"/>
<stop offset="1" stop-color="#F7F6F4" stop-opacity="0"/>
</linearGradient>
<linearGradient id="paint3_linear" x1="1905.11" y1="812.441" x2="1905.11" y2="1125.98" gradientUnits="userSpaceOnUse">
<stop stop-color="#604C3F"/>
<stop offset="0.1224" stop-color="#675346" stop-opacity="0.8776"/>
<stop offset="0.3165" stop-color="#7B675A" stop-opacity="0.6835"/>
<stop offset="0.5579" stop-color="#9D8D81" stop-opacity="0.4421"/>
<stop offset="0.8347" stop-color="#D1C9C2" stop-opacity="0.1653"/>
<stop offset="1" stop-color="#F7F6F4" stop-opacity="0"/>
</linearGradient>
<linearGradient id="paint4_linear" x1="2725.26" y1="955.724" x2="2231.41" y2="1452.16" gradientUnits="userSpaceOnUse">
<stop stop-color="#F7F6F4" stop-opacity="0"/>
<stop offset="0.1215" stop-color="#E5E0DA" stop-opacity="0.1215"/>
<stop offset="0.4129" stop-color="#BFB2A4" stop-opacity="0.4129"/>
<stop offset="0.6669" stop-color="#A39380" stop-opacity="0.6669"/>
<stop offset="0.8712" stop-color="#92816C" stop-opacity="0.8712"/>
<stop offset="1" stop-color="#8B7B66"/>
</linearGradient>
<linearGradient id="paint5_linear" x1="2015.94" y1="1375.85" x2="2595.93" y2="1375.85" gradientUnits="userSpaceOnUse">
<stop stop-color="white" stop-opacity="0"/>
<stop offset="1" stop-color="#BEAB88" stop-opacity="0.5"/>
</linearGradient>
<linearGradient id="paint6_linear" x1="1893.88" y1="1481.29" x2="2410.7" y2="1615.65" gradientUnits="userSpaceOnUse">
<stop stop-color="#8B7B66"/>
<stop offset="0.1288" stop-color="#92816C" stop-opacity="0.8712"/>
<stop offset="0.3331" stop-color="#A39380" stop-opacity="0.6669"/>
<stop offset="0.5871" stop-color="#BFB2A4" stop-opacity="0.4129"/>
<stop offset="0.8785" stop-color="#E5E0DA" stop-opacity="0.1215"/>
<stop offset="1" stop-color="#F7F6F4" stop-opacity="0"/>
</linearGradient>
<linearGradient id="paint7_linear" x1="1645.01" y1="1483.18" x2="2157.35" y2="1483.18" gradientUnits="userSpaceOnUse">
<stop stop-color="white" stop-opacity="0"/>
<stop offset="1" stop-color="#BEAB88" stop-opacity="0.5"/>
</linearGradient>
<linearGradient id="paint8_linear" x1="887.242" y1="1159.16" x2="1306.43" y2="1537.91" gradientUnits="userSpaceOnUse">
<stop stop-color="#F7F6F4" stop-opacity="0"/>
<stop offset="0.1653" stop-color="#D1C9C2" stop-opacity="0.1653"/>
<stop offset="0.4421" stop-color="#9D8D81" stop-opacity="0.4421"/>
<stop offset="0.6835" stop-color="#7B675A" stop-opacity="0.6835"/>
<stop offset="0.8776" stop-color="#675346" stop-opacity="0.8776"/>
<stop offset="1" stop-color="#604C3F"/>
</linearGradient>
<linearGradient id="paint9_linear" x1="815.727" y1="1013.01" x2="993.917" y2="1013.01" gradientUnits="userSpaceOnUse">
<stop stop-color="white" stop-opacity="0"/>
<stop offset="1" stop-color="#BEAB88" stop-opacity="0.5"/>
</linearGradient>
<linearGradient id="paint10_linear" x1="815.727" y1="933.378" x2="862.627" y2="933.378" gradientUnits="userSpaceOnUse">
<stop stop-color="#604C3F"/>
<stop offset="0.1224" stop-color="#675346" stop-opacity="0.8776"/>
<stop offset="0.3165" stop-color="#7B675A" stop-opacity="0.6835"/>
<stop offset="0.5579" stop-color="#9D8D81" stop-opacity="0.4421"/>
<stop offset="0.8347" stop-color="#D1C9C2" stop-opacity="0.1653"/>
<stop offset="1" stop-color="#F7F6F4" stop-opacity="0"/>
</linearGradient>
<linearGradient id="paint11_linear" x1="940.56" y1="1432.99" x2="1432.15" y2="1432.99" gradientUnits="userSpaceOnUse">
<stop stop-color="#F7F6F4" stop-opacity="0"/>
<stop offset="0.1215" stop-color="#E5E0DA" stop-opacity="0.1215"/>
<stop offset="0.4129" stop-color="#BFB2A4" stop-opacity="0.4129"/>
<stop offset="0.6669" stop-color="#A39380" stop-opacity="0.6669"/>
<stop offset="0.8712" stop-color="#92816C" stop-opacity="0.8712"/>
<stop offset="1" stop-color="#8B7B66"/>
</linearGradient>
<linearGradient id="paint12_linear" x1="1031.73" y1="2037.47" x2="1867.02" y2="2037.47" gradientUnits="userSpaceOnUse">
<stop stop-color="#F7F6F4" stop-opacity="0"/>
<stop offset="0.1215" stop-color="#E5E0DA" stop-opacity="0.1215"/>
<stop offset="0.4129" stop-color="#BFB2A4" stop-opacity="0.4129"/>
<stop offset="0.6669" stop-color="#A39380" stop-opacity="0.6669"/>
<stop offset="0.8712" stop-color="#92816C" stop-opacity="0.8712"/>
<stop offset="1" stop-color="#8B7B66"/>
</linearGradient>
<linearGradient id="paint13_linear" x1="1041.37" y1="2037.47" x2="1847.74" y2="2037.47" gradientUnits="userSpaceOnUse">
<stop stop-color="white" stop-opacity="0"/>
<stop offset="1" stop-color="#BEAB88" stop-opacity="0.5"/>
</linearGradient>
<linearGradient id="paint14_linear" x1="2878.84" y1="961.452" x2="2878.84" y2="940.587" gradientUnits="userSpaceOnUse">
<stop stop-color="#604C3F"/>
<stop offset="0.1224" stop-color="#675346" stop-opacity="0.8776"/>
<stop offset="0.3165" stop-color="#7B675A" stop-opacity="0.6835"/>
<stop offset="0.5579" stop-color="#9D8D81" stop-opacity="0.4421"/>
<stop offset="0.8347" stop-color="#D1C9C2" stop-opacity="0.1653"/>
<stop offset="1" stop-color="#F7F6F4" stop-opacity="0"/>
</linearGradient>
<linearGradient id="paint15_linear" x1="2878.84" y1="951.019" x2="2878.84" y2="917.13" gradientUnits="userSpaceOnUse">
<stop stop-color="#604C3F"/>
<stop offset="0.1224" stop-color="#675346" stop-opacity="0.8776"/>
<stop offset="0.3165" stop-color="#7B675A" stop-opacity="0.6835"/>
<stop offset="0.5579" stop-color="#9D8D81" stop-opacity="0.4421"/>
<stop offset="0.8347" stop-color="#D1C9C2" stop-opacity="0.1653"/>
<stop offset="1" stop-color="#F7F6F4" stop-opacity="0"/>
</linearGradient>
<linearGradient id="paint16_linear" x1="2878.84" y1="934.076" x2="2878.84" y2="900.187" gradientUnits="userSpaceOnUse">
<stop stop-color="#604C3F"/>
<stop offset="0.1224" stop-color="#675346" stop-opacity="0.8776"/>
<stop offset="0.3165" stop-color="#7B675A" stop-opacity="0.6835"/>
<stop offset="0.5579" stop-color="#9D8D81" stop-opacity="0.4421"/>
<stop offset="0.8347" stop-color="#D1C9C2" stop-opacity="0.1653"/>
<stop offset="1" stop-color="#F7F6F4" stop-opacity="0"/>
</linearGradient>
<linearGradient id="paint17_linear" x1="2878.84" y1="917.131" x2="2878.84" y2="883.242" gradientUnits="userSpaceOnUse">
<stop stop-color="#604C3F"/>
<stop offset="0.1224" stop-color="#675346" stop-opacity="0.8776"/>
<stop offset="0.3165" stop-color="#7B675A" stop-opacity="0.6835"/>
<stop offset="0.5579" stop-color="#9D8D81" stop-opacity="0.4421"/>
<stop offset="0.8347" stop-color="#D1C9C2" stop-opacity="0.1653"/>
<stop offset="1" stop-color="#F7F6F4" stop-opacity="0"/>
</linearGradient>
<linearGradient id="paint18_linear" x1="2763.48" y1="751.17" x2="2994.19" y2="751.17" gradientUnits="userSpaceOnUse">
<stop stop-color="white" stop-opacity="0"/>
<stop offset="1" stop-color="#BEAB88" stop-opacity="0.5"/>
</linearGradient>
<linearGradient id="paint19_linear" x1="2332.76" y1="2000.66" x2="2332.76" y2="1568.42" gradientUnits="userSpaceOnUse">
<stop stop-color="#604C3F"/>
<stop offset="0.1224" stop-color="#675346" stop-opacity="0.8776"/>
<stop offset="0.3165" stop-color="#7B675A" stop-opacity="0.6835"/>
<stop offset="0.5579" stop-color="#9D8D81" stop-opacity="0.4421"/>
<stop offset="0.8347" stop-color="#D1C9C2" stop-opacity="0.1653"/>
<stop offset="1" stop-color="#F7F6F4" stop-opacity="0"/>
</linearGradient>
<linearGradient id="paint20_linear" x1="2332.76" y1="2037.48" x2="2332.76" y2="1922.01" gradientUnits="userSpaceOnUse">
<stop stop-color="#604C3F"/>
<stop offset="0.1224" stop-color="#675346" stop-opacity="0.8776"/>
<stop offset="0.3165" stop-color="#7B675A" stop-opacity="0.6835"/>
<stop offset="0.5579" stop-color="#9D8D81" stop-opacity="0.4421"/>
<stop offset="0.8347" stop-color="#D1C9C2" stop-opacity="0.1653"/>
<stop offset="1" stop-color="#F7F6F4" stop-opacity="0"/>
</linearGradient>
<radialGradient id="paint21_radial" cx="0" cy="0" r="1" gradientUnits="userSpaceOnUse" gradientTransform="translate(2839.26 713.808) scale(52.7619 75.4652)">
<stop stop-color="white" stop-opacity="0.5"/>
<stop offset="1" stop-color="white" stop-opacity="0"/>
</radialGradient>
<linearGradient id="paint22_linear" x1="2107.13" y1="1768.81" x2="2493.58" y2="1768.81" gradientUnits="userSpaceOnUse">
<stop stop-color="white" stop-opacity="0"/>
<stop offset="1" stop-color="white" stop-opacity="0.5"/>
</linearGradient>
<linearGradient id="paint23_linear" x1="2242.62" y1="1768.81" x2="2569.79" y2="1768.81" gradientUnits="userSpaceOnUse">
<stop stop-color="white" stop-opacity="0"/>
<stop offset="1" stop-color="white" stop-opacity="0.5"/>
</linearGradient>
<linearGradient id="paint24_linear" x1="1430.23" y1="1238.99" x2="1734.16" y2="1869.43" gradientUnits="userSpaceOnUse">
<stop stop-color="#F7F6F4" stop-opacity="0"/>
<stop offset="0.1215" stop-color="#E5E0DA" stop-opacity="0.1215"/>
<stop offset="0.4129" stop-color="#BFB2A4" stop-opacity="0.4129"/>
<stop offset="0.6669" stop-color="#A39380" stop-opacity="0.6669"/>
<stop offset="0.8712" stop-color="#92816C" stop-opacity="0.8712"/>
<stop offset="1" stop-color="#8B7B66"/>
</linearGradient>
<linearGradient id="paint25_linear" x1="1206.44" y1="1375.85" x2="1786.42" y2="1375.85" gradientUnits="userSpaceOnUse">
<stop stop-color="white" stop-opacity="0"/>
<stop offset="1" stop-color="#BEAB88" stop-opacity="0.5"/>
</linearGradient>
<linearGradient id="paint26_linear" x1="1571.78" y1="1719.39" x2="1628.79" y2="1776.57" gradientUnits="userSpaceOnUse">
<stop stop-color="#F7F6F4" stop-opacity="0"/>
<stop offset="0.1653" stop-color="#D1C9C2" stop-opacity="0.1653"/>
<stop offset="0.4421" stop-color="#9D8D81" stop-opacity="0.4421"/>
<stop offset="0.6835" stop-color="#7B675A" stop-opacity="0.6835"/>
<stop offset="0.8776" stop-color="#675346" stop-opacity="0.8776"/>
<stop offset="1" stop-color="#604C3F"/>
</linearGradient>
<linearGradient id="paint27_linear" x1="1400.5" y1="1771.5" x2="1455.51" y2="1712.39" gradientUnits="userSpaceOnUse">
<stop stop-color="#604C3F"/>
<stop offset="0.1224" stop-color="#675346" stop-opacity="0.8776"/>
<stop offset="0.3165" stop-color="#7B675A" stop-opacity="0.6835"/>
<stop offset="0.5579" stop-color="#9D8D81" stop-opacity="0.4421"/>
<stop offset="0.8347" stop-color="#D1C9C2" stop-opacity="0.1653"/>
<stop offset="1" stop-color="#F7F6F4" stop-opacity="0"/>
</linearGradient>
<linearGradient id="paint28_linear" x1="1371.4" y1="1494.01" x2="1465.11" y2="1494.01" gradientUnits="userSpaceOnUse">
<stop stop-color="#F7F6F4" stop-opacity="0"/>
<stop offset="0.1653" stop-color="#D1C9C2" stop-opacity="0.1653"/>
<stop offset="0.4421" stop-color="#9D8D81" stop-opacity="0.4421"/>
<stop offset="0.6835" stop-color="#7B675A" stop-opacity="0.6835"/>
<stop offset="0.8776" stop-color="#675346" stop-opacity="0.8776"/>
<stop offset="1" stop-color="#604C3F"/>
</linearGradient>
<linearGradient id="paint29_linear" x1="1558.2" y1="1494.01" x2="1651.91" y2="1494.01" gradientUnits="userSpaceOnUse">
<stop stop-color="#F7F6F4" stop-opacity="0"/>
<stop offset="0.1653" stop-color="#D1C9C2" stop-opacity="0.1653"/>
<stop offset="0.4421" stop-color="#9D8D81" stop-opacity="0.4421"/>
<stop offset="0.6835" stop-color="#7B675A" stop-opacity="0.6835"/>
<stop offset="0.8776" stop-color="#675346" stop-opacity="0.8776"/>
<stop offset="1" stop-color="#604C3F"/>
</linearGradient>
<linearGradient id="paint30_linear" x1="1166.77" y1="1862.8" x2="1905.8" y2="1862.8" gradientUnits="userSpaceOnUse">
<stop stop-color="#F7F6F4" stop-opacity="0"/>
<stop offset="0.1653" stop-color="#D1C9C2" stop-opacity="0.0992"/>
<stop offset="0.4421" stop-color="#9D8D81" stop-opacity="0.2652"/>
<stop offset="0.6835" stop-color="#7B675A" stop-opacity="0.4101"/>
<stop offset="0.8776" stop-color="#675346" stop-opacity="0.5266"/>
<stop offset="1" stop-color="#604C3F" stop-opacity="0.6"/>
</linearGradient>
<linearGradient id="paint31_linear" x1="1278.22" y1="1866.37" x2="1531.84" y2="1866.37" gradientUnits="userSpaceOnUse">
<stop stop-color="white" stop-opacity="0"/>
<stop offset="1" stop-color="#BEAB88" stop-opacity="0.5"/>
</linearGradient>
<linearGradient id="paint32_linear" x1="2219.07" y1="984.373" x2="2532.92" y2="984.373" gradientUnits="userSpaceOnUse">
<stop stop-color="white" stop-opacity="0"/>
<stop offset="1" stop-color="#BEAB88" stop-opacity="0.5"/>
</linearGradient>
<linearGradient id="paint33_linear" x1="1749.96" y1="1037.63" x2="2061.11" y2="1037.63" gradientUnits="userSpaceOnUse">
<stop stop-color="white" stop-opacity="0"/>
<stop offset="1" stop-color="#BEAB88" stop-opacity="0.5"/>
</linearGradient>
<linearGradient id="paint34_linear" x1="1269.45" y1="984.373" x2="1583.3" y2="984.373" gradientUnits="userSpaceOnUse">
<stop stop-color="white" stop-opacity="0"/>
<stop offset="1" stop-color="#BEAB88" stop-opacity="0.5"/>
</linearGradient>
</defs>
</svg>
